<?xml version="1.0" ?>
<svg xmlns="http://www.w3.org/2000/svg"
  height="3.000000in" width="7.000000in" 
  units="in"
  viewBox="0 0 7.000000 3.000000">
 <g fill="none" stroke-width="0.005000"
    transform="translate(3.500000,1.500000) scale(1, -1)">
<g stroke="#00f">
  <path d="m-2.500000,-0.000000 A1.000000,1.000000 0 0,1 -2.000000,-0.866025"/>
  <line x1="2.000000" y1="-0.866025" x2="2.000000" y2="-1.299038" />
  <line x1="1.500000" y1="0.866025" x2="1.500000" y2="1.299038" />
  <path d="m1.500000,-0.000000 A1.000000,1.000000 0 0,1 2.000000,-0.866025"/>
  <path d="m2.000000,0.000000 A1.000000,1.000000 0 0,1 1.500000,0.866025"/>
  <line x1="1.000000" y1="-0.866025" x2="1.000000" y2="-1.299038" />
  <path d="m1.500000,0.866025 A1.000000,1.000000 0 0,1 1.000000,0.000000"/>
  <path d="m1.000000,-0.866025 A1.000000,1.000000 0 0,1 1.500000,-0.000000"/>
  <line x1="3.000000" y1="-0.866025" x2="3.000000" y2="-1.299038" />
  <line x1="2.500000" y1="0.866025" x2="2.500000" y2="1.299038" />
  <path d="m2.500000,-0.000000 A1.000000,1.000000 0 0,1 3.000000,-0.866025"/>
  <path d="m3.000000,0.000000 A1.000000,1.000000 0 0,1 2.500000,0.866025"/>
  <line x1="2.000000" y1="-0.866025" x2="2.000000" y2="-1.299038" />
  <path d="m2.500000,0.866025 A1.000000,1.000000 0 0,1 2.000000,0.000000"/>
  <path d="m2.000000,-0.866025 A1.000000,1.000000 0 0,1 2.500000,-0.000000"/>
  <path d="m-2.000000,0.000000 A1.000000,1.000000 0 0,1 -2.500000,0.866025"/>
  <line x1="-3.000000" y1="-0.866025" x2="-3.000000" y2="-1.299038" />
  <path d="m-2.500000,0.866025 A1.000000,1.000000 0 0,1 -3.000000,0.000000"/>
  <path d="m-3.000000,-0.866025 A1.000000,1.000000 0 0,1 -2.500000,-0.000000"/>
  <line x1="-1.000000" y1="-0.866025" x2="-1.000000" y2="-1.299038" />
  <line x1="-1.500000" y1="0.866025" x2="-1.500000" y2="1.299038" />
  <path d="m-1.500000,-0.000000 A1.000000,1.000000 0 0,1 -1.000000,-0.866025"/>
  <path d="m-1.000000,0.000000 A1.000000,1.000000 0 0,1 -1.500000,0.866025"/>
  <line x1="-2.000000" y1="-0.866025" x2="-2.000000" y2="-1.299038" />
  <path d="m-1.500000,0.866025 A1.000000,1.000000 0 0,1 -2.000000,0.000000"/>
  <path d="m-2.000000,-0.866025 A1.000000,1.000000 0 0,1 -1.500000,-0.000000"/>
  <line x1="0.000000" y1="-0.866025" x2="0.000000" y2="-1.299038" />
  <line x1="-0.500000" y1="0.866025" x2="-0.500000" y2="1.299038" />
  <path d="m-0.500000,-0.000000 A1.000000,1.000000 0 0,1 0.000000,-0.866025"/>
  <path d="m0.000000,0.000000 A1.000000,1.000000 0 0,1 -0.500000,0.866025"/>
  <line x1="-1.000000" y1="-0.866025" x2="-1.000000" y2="-1.299038" />
  <path d="m-0.500000,0.866025 A1.000000,1.000000 0 0,1 -1.000000,0.000000"/>
  <path d="m-1.000000,-0.866025 A1.000000,1.000000 0 0,1 -0.500000,-0.000000"/>
  <line x1="1.000000" y1="-0.866025" x2="1.000000" y2="-1.299038" />
  <line x1="0.500000" y1="0.866025" x2="0.500000" y2="1.299038" />
  <path d="m-0.000000,-0.866025 A1.000000,1.000000 0 0,1 0.500000,-0.000000"/>
  <path d="m0.500000,-0.000000 A1.000000,1.000000 0 0,1 1.000000,-0.866025"/>
  <path d="m1.000000,0.000000 A1.000000,1.000000 0 0,1 0.500000,0.866025"/>
  <line x1="-0.000000" y1="-0.866025" x2="-0.000000" y2="-1.299038" />
  <path d="m0.500000,0.866025 A1.000000,1.000000 0 0,1 0.000000,0.000000"/>
  <line x1="-2.000000" y1="-0.866025" x2="-2.000000" y2="-1.299038" />
  <line x1="-2.500000" y1="0.866025" x2="-2.500000" y2="1.299038" />
 </g>
<g stroke="#f00">
  <path d="m-2.250000,0.000000 A0.250000,0.250000 0 0,1 -2.000000,-0.250000"/>
  <line x1="0.000000" y1="0.866025" x2="0.500000" y2="0.866025" />
  <path d="m1.500000,0.250000 A0.250000,0.250000 0 0,1 1.250000,0.000000"/>
  <path d="m1.000000,-0.250000 A0.250000,0.250000 0 0,1 1.250000,-0.000000"/>
  <path d="m1.750000,0.000000 A0.250000,0.250000 0 0,1 2.000000,-0.250000"/>
  <path d="m1.750000,0.000000 A0.250000,0.250000 0 0,1 1.500000,0.250000"/>
  <line x1="1.500000" y1="-0.866025" x2="1.000000" y2="-0.866025" />
  <line x1="1.500000" y1="-0.866025" x2="2.000000" y2="-0.866025" />
  <line x1="2.000000" y1="0.866025" x2="1.500000" y2="0.866025" />
  <line x1="1.000000" y1="0.866025" x2="1.500000" y2="0.866025" />
  <path d="m2.500000,0.250000 A0.250000,0.250000 0 0,1 2.250000,0.000000"/>
  <path d="m2.000000,-0.250000 A0.250000,0.250000 0 0,1 2.250000,-0.000000"/>
  <path d="m2.750000,0.000000 A0.250000,0.250000 0 0,1 3.000000,-0.250000"/>
  <path d="m-2.500000,0.250000 A0.250000,0.250000 0 0,1 -2.750000,0.000000"/>
  <path d="m2.750000,0.000000 A0.250000,0.250000 0 0,1 2.500000,0.250000"/>
  <line x1="2.500000" y1="-0.866025" x2="2.000000" y2="-0.866025" />
  <line x1="2.500000" y1="-0.866025" x2="3.000000" y2="-0.866025" />
  <line x1="3.000000" y1="0.866025" x2="2.500000" y2="0.866025" />
  <line x1="2.000000" y1="0.866025" x2="2.500000" y2="0.866025" />
  <path d="m-2.250000,0.000000 A0.250000,0.250000 0 0,1 -2.500000,0.250000"/>
  <line x1="-2.500000" y1="-0.866025" x2="-3.000000" y2="-0.866025" />
  <line x1="-2.500000" y1="-0.866025" x2="-2.000000" y2="-0.866025" />
  <line x1="-2.000000" y1="0.866025" x2="-2.500000" y2="0.866025" />
  <line x1="-3.000000" y1="0.866025" x2="-2.500000" y2="0.866025" />
  <path d="m-1.500000,0.250000 A0.250000,0.250000 0 0,1 -1.750000,0.000000"/>
  <path d="m-2.000000,-0.250000 A0.250000,0.250000 0 0,1 -1.750000,-0.000000"/>
  <path d="m-1.250000,0.000000 A0.250000,0.250000 0 0,1 -1.000000,-0.250000"/>
  <path d="m-1.250000,0.000000 A0.250000,0.250000 0 0,1 -1.500000,0.250000"/>
  <line x1="-1.500000" y1="-0.866025" x2="-2.000000" y2="-0.866025" />
  <line x1="-1.500000" y1="-0.866025" x2="-1.000000" y2="-0.866025" />
  <path d="m0.750000,0.000000 A0.250000,0.250000 0 0,1 0.500000,0.250000"/>
  <line x1="-1.000000" y1="0.866025" x2="-1.500000" y2="0.866025" />
  <line x1="-2.000000" y1="0.866025" x2="-1.500000" y2="0.866025" />
  <path d="m-0.500000,0.250000 A0.250000,0.250000 0 0,1 -0.750000,0.000000"/>
  <path d="m-3.000000,-0.250000 A0.250000,0.250000 0 0,1 -2.750000,-0.000000"/>
  <path d="m-1.000000,-0.250000 A0.250000,0.250000 0 0,1 -0.750000,-0.000000"/>
  <path d="m-0.250000,0.000000 A0.250000,0.250000 0 0,1 0.000000,-0.250000"/>
  <line x1="0.500000" y1="-0.866025" x2="-0.000000" y2="-0.866025" />
  <path d="m-0.250000,0.000000 A0.250000,0.250000 0 0,1 -0.500000,0.250000"/>
  <line x1="-0.500000" y1="-0.866025" x2="-1.000000" y2="-0.866025" />
  <line x1="-0.500000" y1="-0.866025" x2="0.000000" y2="-0.866025" />
  <line x1="0.500000" y1="-0.866025" x2="1.000000" y2="-0.866025" />
  <line x1="0.000000" y1="0.866025" x2="-0.500000" y2="0.866025" />
  <line x1="-1.000000" y1="0.866025" x2="-0.500000" y2="0.866025" />
  <path d="m0.500000,0.250000 A0.250000,0.250000 0 0,1 0.250000,0.000000"/>
  <path d="m-0.000000,-0.250000 A0.250000,0.250000 0 0,1 0.250000,-0.000000"/>
  <path d="m0.750000,0.000000 A0.250000,0.250000 0 0,1 1.000000,-0.250000"/>
  <line x1="1.000000" y1="0.866025" x2="0.500000" y2="0.866025" />
 </g>
<g stroke="#f0f">
  <line x1="-3.000000" y1="-1.299038" x2="-3.000000" y2="1.299038" />
  <line x1="-3.000000" y1="1.299038" x2="3.000000" y2="1.299038" />
  <line x1="3.000000" y1="1.299038" x2="3.000000" y2="-1.299038" />
  <line x1="3.000000" y1="-1.299038" x2="-3.000000" y2="-1.299038" />
 </g>
 </g>
</svg>
