<?xml version="1.0" ?>
<svg xmlns="http://www.w3.org/2000/svg"
  height="8.660254in" width="13.125000in" 
  units="in"
  viewBox="0 0 13.125000 8.660254">
 <g fill="none" stroke-width="0.010000"
    transform="translate(6.562500,4.330127) scale(1, -1)">
<g stroke="#0f0">
  <line x1="-2.362500" y1="0.411362" x2="-3.237500" y2="-0.093819" />
  <line x1="-2.212500" y1="1.768135" x2="-2.162500" y2="1.768135" />
  <line x1="-2.387500" y1="2.619727" x2="-3.262500" y2="2.114545" />
  <line x1="-0.137500" y1="3.658957" x2="-0.112500" y2="3.702259" />
  <line x1="-5.912500" y1="-3.572355" x2="-5.912500" y2="-2.561992" />
  <line x1="-1.362500" y1="0.988712" x2="-1.387500" y2="1.032014" />
  <line x1="-3.012500" y1="3.153776" x2="-2.987500" y2="3.197077" />
  <line x1="-2.212500" y1="0.757772" x2="-2.162500" y2="0.757772" />
  <line x1="-4.237500" y1="-0.671170" x2="-5.112500" y2="-1.176351" />
  <line x1="-4.237500" y1="-2.836233" x2="-5.112500" y2="-3.341415" />
  <line x1="-0.487500" y1="3.658957" x2="-0.512500" y2="3.702259" />
  <line x1="-3.887500" y1="1.493894" x2="-3.012500" y2="0.988712" />
  <line x1="3.412500" y1="2.850667" x2="3.462500" y2="2.850667" />
  <line x1="-5.912500" y1="0.757772" x2="-5.912500" y2="1.768135" />
  <line x1="-0.337500" y1="1.840304" x2="-0.287500" y2="1.840304" />
  <line x1="-2.212500" y1="-1.407291" x2="-2.162500" y2="-1.407291" />
  <line x1="-2.362500" y1="2.576426" x2="-2.387500" y2="2.619727" />
  <line x1="-3.887500" y1="3.658957" x2="-3.862500" y2="3.702259" />
  <line x1="1.362500" y1="2.619727" x2="0.487500" y2="2.114545" />
  <line x1="-4.087500" y1="1.840304" x2="-4.037500" y2="1.840304" />
  <line x1="-3.237500" y1="-0.093819" x2="-3.262500" y2="-0.050518" />
  <line x1="0.487500" y1="-0.050518" x2="0.512500" y2="-0.093819" />
  <line x1="-5.737500" y1="2.619727" x2="-4.862500" y2="2.114545" />
  <line x1="-3.887500" y1="3.658957" x2="-3.012500" y2="3.153776" />
  <line x1="-5.737500" y1="0.454663" x2="-5.762500" y2="0.411362" />
  <line x1="-3.262500" y1="2.114545" x2="-3.237500" y2="2.071244" />
  <line x1="-2.362500" y1="2.576426" x2="-3.237500" y2="2.071244" />
  <line x1="3.612500" y1="1.493894" x2="4.487500" y2="0.988712" />
  <line x1="-2.387500" y1="2.619727" x2="-3.262500" y2="2.114545" />
  <line x1="-2.162500" y1="-1.407291" x2="-2.212500" y2="-1.407291" />
  <line x1="1.387500" y1="2.576426" x2="0.512500" y2="2.071244" />
  <line x1="-5.912500" y1="1.768135" x2="-5.962500" y2="1.768135" />
  <line x1="-2.162500" y1="0.757772" x2="-2.162500" y2="1.768135" />
  <line x1="-3.862500" y1="1.537195" x2="-2.987500" y2="1.032014" />
  <line x1="-4.087500" y1="2.850667" x2="-4.037500" y2="2.850667" />
  <line x1="-2.162500" y1="0.757772" x2="-2.162500" y2="1.768135" />
  <line x1="-2.987500" y1="1.032014" x2="-3.012500" y2="0.988712" />
  <line x1="-2.362500" y1="2.576426" x2="-3.237500" y2="2.071244" />
  <line x1="-5.737500" y1="2.619727" x2="-5.762500" y2="2.576426" />
  <line x1="-4.037500" y1="1.840304" x2="-4.037500" y2="2.850667" />
  <line x1="3.637500" y1="1.537195" x2="4.512500" y2="1.032014" />
  <line x1="-4.037500" y1="2.850667" x2="-4.087500" y2="2.850667" />
  <line x1="0.512500" y1="2.071244" x2="0.487500" y2="2.114545" />
  <line x1="5.112500" y1="0.454663" x2="5.137500" y2="0.411362" />
  <line x1="-2.012500" y1="2.576426" x2="-1.137500" y2="2.071244" />
  <line x1="-3.862500" y1="1.537195" x2="-3.887500" y2="1.493894" />
  <line x1="-1.387500" y1="1.032014" x2="-1.362500" y2="0.988712" />
  <line x1="0.487500" y1="2.114545" x2="0.512500" y2="2.071244" />
  <line x1="-4.037500" y1="1.840304" x2="-4.087500" y2="1.840304" />
  <line x1="0.737500" y1="-1.176351" x2="0.762500" y2="-1.133050" />
  <line x1="-0.112500" y1="1.537195" x2="0.762500" y2="1.032014" />
  <line x1="-5.762500" y1="0.411362" x2="-4.887500" y2="-0.093819" />
  <line x1="-4.237500" y1="1.493894" x2="-5.112500" y2="0.988712" />
  <line x1="-2.162500" y1="0.757772" x2="-2.212500" y2="0.757772" />
  <line x1="2.387500" y1="0.988712" x2="2.362500" y2="1.032014" />
  <line x1="-5.762500" y1="2.576426" x2="-4.887500" y2="2.071244" />
  <line x1="-2.012500" y1="2.576426" x2="-1.137500" y2="2.071244" />
  <line x1="1.587500" y1="-1.407291" x2="1.537500" y2="-1.407291" />
  <line x1="-0.337500" y1="1.840304" x2="-0.337500" y2="2.850667" />
  <line x1="3.412500" y1="-2.489823" x2="3.412500" y2="-1.479460" />
  <line x1="5.287500" y1="-3.572355" x2="5.337500" y2="-3.572355" />
  <line x1="-4.262500" y1="1.537195" x2="-5.137500" y2="1.032014" />
  <line x1="-4.087500" y1="-0.324760" x2="-4.087500" y2="0.685603" />
  <line x1="-5.762500" y1="-1.753701" x2="-5.737500" y2="-1.710400" />
  <line x1="-4.087500" y1="1.840304" x2="-4.087500" y2="2.850667" />
  <line x1="-2.362500" y1="0.411362" x2="-3.237500" y2="-0.093819" />
  <line x1="1.537500" y1="1.768135" x2="1.587500" y2="1.768135" />
  <line x1="-1.112500" y1="2.114545" x2="-1.137500" y2="2.071244" />
  <line x1="-4.037500" y1="-0.324760" x2="-4.037500" y2="0.685603" />
  <line x1="5.287500" y1="0.757772" x2="5.287500" y2="1.768135" />
  <line x1="-5.737500" y1="0.454663" x2="-4.862500" y2="-0.050518" />
  <line x1="-5.112500" y1="0.988712" x2="-5.137500" y2="1.032014" />
  <line x1="1.537500" y1="-1.407291" x2="1.587500" y2="-1.407291" />
  <line x1="-0.512500" y1="-0.627868" x2="-1.387500" y2="-1.133050" />
  <line x1="-3.012500" y1="-1.176351" x2="-2.987500" y2="-1.133050" />
  <line x1="-1.387500" y1="-1.133050" x2="-1.362500" y2="-1.176351" />
  <line x1="-5.737500" y1="0.454663" x2="-4.862500" y2="-0.050518" />
  <line x1="-5.912500" y1="-1.407291" x2="-5.962500" y2="-1.407291" />
  <line x1="-2.212500" y1="-1.407291" x2="-2.212500" y2="-0.396928" />
  <line x1="-4.087500" y1="-0.324760" x2="-4.087500" y2="0.685603" />
  <line x1="-2.387500" y1="2.619727" x2="-2.362500" y2="2.576426" />
  <line x1="1.737500" y1="0.411362" x2="2.612500" y2="-0.093819" />
  <line x1="2.637500" y1="-2.215582" x2="2.612500" y2="-2.258883" />
  <line x1="-3.862500" y1="-2.792932" x2="-3.887500" y2="-2.836233" />
  <line x1="-5.962500" y1="-1.407291" x2="-5.962500" y2="-0.396928" />
  <line x1="-5.912500" y1="-1.407291" x2="-5.912500" y2="-0.396928" />
  <line x1="-4.262500" y1="-0.627868" x2="-5.137500" y2="-1.133050" />
  <line x1="3.262500" y1="-0.671170" x2="2.387500" y2="-1.176351" />
  <line x1="-5.137500" y1="-1.133050" x2="-5.112500" y2="-1.176351" />
  <line x1="-5.962500" y1="-3.572355" x2="-5.962500" y2="-2.561992" />
  <line x1="-2.162500" y1="-3.572355" x2="-2.162500" y2="-2.561992" />
  <line x1="-4.087500" y1="-0.324760" x2="-4.037500" y2="-0.324760" />
  <line x1="-4.262500" y1="-0.627868" x2="-4.237500" y2="-0.671170" />
  <line x1="-2.212500" y1="0.757772" x2="-2.212500" y2="1.768135" />
  <line x1="-5.912500" y1="-0.396928" x2="-5.962500" y2="-0.396928" />
  <line x1="-1.987500" y1="-1.710400" x2="-2.012500" y2="-1.753701" />
  <line x1="-2.387500" y1="0.454663" x2="-2.362500" y2="0.411362" />
  <line x1="-1.112500" y1="-2.215582" x2="-1.137500" y2="-2.258883" />
  <line x1="-3.862500" y1="1.537195" x2="-2.987500" y2="1.032014" />
  <line x1="-4.887500" y1="-0.093819" x2="-4.862500" y2="-0.050518" />
  <line x1="-2.387500" y1="0.454663" x2="-3.262500" y2="-0.050518" />
  <line x1="-3.262500" y1="-0.050518" x2="-3.237500" y2="-0.093819" />
  <line x1="-5.762500" y1="0.411362" x2="-5.737500" y2="0.454663" />
  <line x1="5.137500" y1="2.576426" x2="4.262500" y2="2.071244" />
  <line x1="-0.512500" y1="-0.627868" x2="-0.487500" y2="-0.671170" />
  <line x1="-5.762500" y1="0.411362" x2="-4.887500" y2="-0.093819" />
  <line x1="2.612500" y1="-0.093819" x2="2.637500" y2="-0.050518" />
  <line x1="-0.287500" y1="-0.324760" x2="-0.287500" y2="0.685603" />
  <line x1="-5.912500" y1="-2.561992" x2="-5.962500" y2="-2.561992" />
  <line x1="3.412500" y1="-0.324760" x2="3.462500" y2="-0.324760" />
  <line x1="-2.212500" y1="0.757772" x2="-2.212500" y2="1.768135" />
  <line x1="1.362500" y1="0.454663" x2="0.487500" y2="-0.050518" />
  <line x1="-4.237500" y1="-0.671170" x2="-5.112500" y2="-1.176351" />
  <line x1="-4.862500" y1="-0.050518" x2="-4.887500" y2="-0.093819" />
  <line x1="-4.037500" y1="-2.489823" x2="-4.037500" y2="-1.479460" />
  <line x1="-2.387500" y1="0.454663" x2="-3.262500" y2="-0.050518" />
  <line x1="-1.987500" y1="0.454663" x2="-1.112500" y2="-0.050518" />
  <line x1="-2.212500" y1="-1.407291" x2="-2.212500" y2="-0.396928" />
  <line x1="-0.487500" y1="1.493894" x2="-1.362500" y2="0.988712" />
  <line x1="-0.512500" y1="1.537195" x2="-1.387500" y2="1.032014" />
  <line x1="1.762500" y1="0.454663" x2="2.637500" y2="-0.050518" />
  <line x1="-2.212500" y1="-0.396928" x2="-2.162500" y2="-0.396928" />
  <line x1="-0.112500" y1="1.537195" x2="0.762500" y2="1.032014" />
  <line x1="-5.737500" y1="-1.710400" x2="-4.862500" y2="-2.215582" />
  <line x1="-3.012500" y1="0.988712" x2="-2.987500" y2="1.032014" />
  <line x1="1.737500" y1="2.576426" x2="1.762500" y2="2.619727" />
  <line x1="-3.887500" y1="-2.836233" x2="-3.012500" y2="-3.341415" />
  <line x1="-3.887500" y1="-0.671170" x2="-3.012500" y2="-1.176351" />
  <line x1="-4.862500" y1="-2.215582" x2="-4.887500" y2="-2.258883" />
  <line x1="3.412500" y1="0.685603" x2="3.462500" y2="0.685603" />
  <line x1="-0.337500" y1="2.850667" x2="-0.287500" y2="2.850667" />
  <line x1="4.237500" y1="-2.215582" x2="4.262500" y2="-2.258883" />
  <line x1="3.462500" y1="-0.324760" x2="3.462500" y2="0.685603" />
  <line x1="3.262500" y1="-0.671170" x2="2.387500" y2="-1.176351" />
  <line x1="-0.337500" y1="-0.324760" x2="-0.337500" y2="0.685603" />
  <line x1="3.637500" y1="-0.627868" x2="3.612500" y2="-0.671170" />
  <line x1="5.112500" y1="2.619727" x2="5.137500" y2="2.576426" />
  <line x1="1.587500" y1="-1.407291" x2="1.587500" y2="-0.396928" />
  <line x1="0.762500" y1="1.032014" x2="0.737500" y2="0.988712" />
  <line x1="0.762500" y1="-1.133050" x2="0.737500" y2="-1.176351" />
  <line x1="-4.262500" y1="-2.792932" x2="-5.137500" y2="-3.298113" />
  <line x1="3.462500" y1="-0.324760" x2="3.462500" y2="0.685603" />
  <line x1="1.737500" y1="-1.753701" x2="2.612500" y2="-2.258883" />
  <line x1="-0.287500" y1="-0.324760" x2="-0.287500" y2="0.685603" />
  <line x1="-3.262500" y1="-2.215582" x2="-3.237500" y2="-2.258883" />
  <line x1="-5.737500" y1="-1.710400" x2="-5.762500" y2="-1.753701" />
  <line x1="-2.012500" y1="0.411362" x2="-1.987500" y2="0.454663" />
  <line x1="-1.137500" y1="-0.093819" x2="-1.112500" y2="-0.050518" />
  <line x1="3.637500" y1="-2.792932" x2="4.512500" y2="-3.298113" />
  <line x1="-2.162500" y1="-1.407291" x2="-2.162500" y2="-0.396928" />
  <line x1="-0.287500" y1="-0.324760" x2="-0.337500" y2="-0.324760" />
  <line x1="2.637500" y1="-0.050518" x2="2.612500" y2="-0.093819" />
  <line x1="-0.487500" y1="3.658957" x2="-1.362500" y2="3.153776" />
  <line x1="-3.862500" y1="-0.627868" x2="-2.987500" y2="-1.133050" />
  <line x1="-4.087500" y1="0.685603" x2="-4.037500" y2="0.685603" />
  <line x1="-2.387500" y1="-1.710400" x2="-3.262500" y2="-2.215582" />
  <line x1="-0.287500" y1="2.850667" x2="-0.337500" y2="2.850667" />
  <line x1="4.262500" y1="-2.258883" x2="4.237500" y2="-2.215582" />
  <line x1="3.637500" y1="3.702259" x2="4.512500" y2="3.197077" />
  <line x1="-4.037500" y1="0.685603" x2="-4.087500" y2="0.685603" />
  <line x1="-5.762500" y1="-1.753701" x2="-4.887500" y2="-2.258883" />
  <line x1="-4.037500" y1="-2.489823" x2="-4.087500" y2="-2.489823" />
  <line x1="-5.137500" y1="-3.298113" x2="-5.112500" y2="-3.341415" />
  <line x1="1.737500" y1="0.411362" x2="1.762500" y2="0.454663" />
  <line x1="3.462500" y1="0.685603" x2="3.412500" y2="0.685603" />
  <line x1="-4.037500" y1="-0.324760" x2="-4.087500" y2="-0.324760" />
  <line x1="-1.387500" y1="-3.298113" x2="-1.362500" y2="-3.341415" />
  <line x1="-4.262500" y1="3.702259" x2="-5.137500" y2="3.197077" />
  <line x1="-3.862500" y1="-2.792932" x2="-2.987500" y2="-3.298113" />
  <line x1="-0.287500" y1="1.840304" x2="-0.287500" y2="2.850667" />
  <line x1="1.762500" y1="-1.710400" x2="2.637500" y2="-2.215582" />
  <line x1="2.387500" y1="-1.176351" x2="2.362500" y2="-1.133050" />
  <line x1="1.587500" y1="-3.572355" x2="1.587500" y2="-2.561992" />
  <line x1="0.512500" y1="-2.258883" x2="0.487500" y2="-2.215582" />
  <line x1="3.412500" y1="-1.479460" x2="3.462500" y2="-1.479460" />
  <line x1="-5.912500" y1="0.757772" x2="-5.962500" y2="0.757772" />
  <line x1="1.387500" y1="-1.753701" x2="0.512500" y2="-2.258883" />
  <line x1="-0.112500" y1="1.537195" x2="-0.137500" y2="1.493894" />
  <line x1="5.287500" y1="1.768135" x2="5.337500" y2="1.768135" />
  <line x1="-0.512500" y1="1.537195" x2="-1.387500" y2="1.032014" />
  <line x1="-0.112500" y1="-0.627868" x2="-0.137500" y2="-0.671170" />
  <line x1="3.237500" y1="1.537195" x2="2.362500" y2="1.032014" />
  <line x1="3.412500" y1="-2.489823" x2="3.462500" y2="-2.489823" />
  <line x1="1.762500" y1="2.619727" x2="2.637500" y2="2.114545" />
  <line x1="-0.337500" y1="-1.479460" x2="-0.287500" y2="-1.479460" />
  <line x1="-1.987500" y1="0.454663" x2="-1.112500" y2="-0.050518" />
  <line x1="1.537500" y1="-3.572355" x2="1.537500" y2="-2.561992" />
  <line x1="-3.862500" y1="-0.627868" x2="-3.887500" y2="-0.671170" />
  <line x1="3.237500" y1="-2.792932" x2="2.362500" y2="-3.298113" />
  <line x1="1.362500" y1="-1.710400" x2="0.487500" y2="-2.215582" />
  <line x1="2.362500" y1="-3.298113" x2="2.387500" y2="-3.341415" />
  <line x1="5.137500" y1="-1.753701" x2="5.112500" y2="-1.710400" />
  <line x1="0.512500" y1="-0.093819" x2="0.487500" y2="-0.050518" />
  <line x1="5.287500" y1="-3.572355" x2="5.287500" y2="-2.561992" />
  <line x1="2.612500" y1="2.071244" x2="2.637500" y2="2.114545" />
  <line x1="1.387500" y1="2.576426" x2="1.362500" y2="2.619727" />
  <line x1="-0.337500" y1="-0.324760" x2="-0.287500" y2="-0.324760" />
  <line x1="-1.987500" y1="2.619727" x2="-1.112500" y2="2.114545" />
  <line x1="3.237500" y1="-0.627868" x2="2.362500" y2="-1.133050" />
  <line x1="-4.087500" y1="-1.479460" x2="-4.037500" y2="-1.479460" />
  <line x1="2.612500" y1="-2.258883" x2="2.637500" y2="-2.215582" />
  <line x1="-5.912500" y1="-3.572355" x2="-5.962500" y2="-3.572355" />
  <line x1="-2.987500" y1="-1.133050" x2="-3.012500" y2="-1.176351" />
  <line x1="-0.287500" y1="1.840304" x2="-0.337500" y2="1.840304" />
  <line x1="5.337500" y1="-1.407291" x2="5.337500" y2="-0.396928" />
  <line x1="-0.137500" y1="3.658957" x2="0.737500" y2="3.153776" />
  <line x1="3.462500" y1="1.840304" x2="3.462500" y2="2.850667" />
  <line x1="-2.212500" y1="-3.572355" x2="-2.212500" y2="-2.561992" />
  <line x1="-4.037500" y1="1.840304" x2="-4.037500" y2="2.850667" />
  <line x1="-5.112500" y1="-1.176351" x2="-5.137500" y2="-1.133050" />
  <line x1="-0.512500" y1="-2.792932" x2="-1.387500" y2="-3.298113" />
  <line x1="3.462500" y1="1.840304" x2="3.412500" y2="1.840304" />
  <line x1="-2.162500" y1="-3.572355" x2="-2.212500" y2="-3.572355" />
  <line x1="-3.862500" y1="3.702259" x2="-2.987500" y2="3.197077" />
  <line x1="-4.087500" y1="-2.489823" x2="-4.087500" y2="-1.479460" />
  <line x1="5.112500" y1="0.454663" x2="4.237500" y2="-0.050518" />
  <line x1="5.112500" y1="0.454663" x2="4.237500" y2="-0.050518" />
  <line x1="1.362500" y1="-1.710400" x2="1.387500" y2="-1.753701" />
  <line x1="-0.512500" y1="-2.792932" x2="-0.487500" y2="-2.836233" />
  <line x1="-0.112500" y1="-0.627868" x2="0.762500" y2="-1.133050" />
  <line x1="-1.987500" y1="2.619727" x2="-2.012500" y2="2.576426" />
  <line x1="3.612500" y1="1.493894" x2="4.487500" y2="0.988712" />
  <line x1="3.612500" y1="-0.671170" x2="3.637500" y2="-0.627868" />
  <line x1="-2.012500" y1="0.411362" x2="-1.137500" y2="-0.093819" />
  <line x1="1.537500" y1="-1.407291" x2="1.537500" y2="-0.396928" />
  <line x1="-2.012500" y1="-1.753701" x2="-1.987500" y2="-1.710400" />
  <line x1="3.462500" y1="2.850667" x2="3.412500" y2="2.850667" />
  <line x1="-0.337500" y1="-2.489823" x2="-0.337500" y2="-1.479460" />
  <line x1="-2.012500" y1="-1.753701" x2="-1.137500" y2="-2.258883" />
  <line x1="5.137500" y1="-1.753701" x2="4.262500" y2="-2.258883" />
  <line x1="-4.262500" y1="-2.792932" x2="-4.237500" y2="-2.836233" />
  <line x1="-0.137500" y1="-0.671170" x2="0.737500" y2="-1.176351" />
  <line x1="5.287500" y1="-2.561992" x2="5.337500" y2="-2.561992" />
  <line x1="1.537500" y1="0.757772" x2="1.537500" y2="1.768135" />
  <line x1="-2.387500" y1="-1.710400" x2="-2.362500" y2="-1.753701" />
  <line x1="-3.862500" y1="-0.627868" x2="-2.987500" y2="-1.133050" />
  <line x1="-0.487500" y1="-0.671170" x2="-1.362500" y2="-1.176351" />
  <line x1="-1.137500" y1="2.071244" x2="-1.112500" y2="2.114545" />
  <line x1="4.262500" y1="2.071244" x2="4.237500" y2="2.114545" />
  <line x1="3.612500" y1="-2.836233" x2="4.487500" y2="-3.341415" />
  <line x1="4.512500" y1="-3.298113" x2="4.487500" y2="-3.341415" />
  <line x1="3.237500" y1="-0.627868" x2="3.262500" y2="-0.671170" />
  <line x1="4.487500" y1="0.988712" x2="4.512500" y2="1.032014" />
  <line x1="1.362500" y1="-1.710400" x2="0.487500" y2="-2.215582" />
  <line x1="1.587500" y1="-3.572355" x2="1.537500" y2="-3.572355" />
  <line x1="1.537500" y1="-3.572355" x2="1.537500" y2="-2.561992" />
  <line x1="-2.362500" y1="-1.753701" x2="-2.387500" y2="-1.710400" />
  <line x1="1.387500" y1="-1.753701" x2="0.512500" y2="-2.258883" />
  <line x1="0.737500" y1="0.988712" x2="0.762500" y2="1.032014" />
  <line x1="5.287500" y1="-1.407291" x2="5.337500" y2="-1.407291" />
  <line x1="4.262500" y1="-0.093819" x2="4.237500" y2="-0.050518" />
  <line x1="-4.887500" y1="2.071244" x2="-4.862500" y2="2.114545" />
  <line x1="-4.237500" y1="3.658957" x2="-4.262500" y2="3.702259" />
  <line x1="3.612500" y1="-0.671170" x2="4.487500" y2="-1.176351" />
  <line x1="-5.737500" y1="-1.710400" x2="-4.862500" y2="-2.215582" />
  <line x1="-2.162500" y1="-1.407291" x2="-2.162500" y2="-0.396928" />
  <line x1="3.462500" y1="-0.324760" x2="3.412500" y2="-0.324760" />
  <line x1="-0.137500" y1="-2.836233" x2="0.737500" y2="-3.341415" />
  <line x1="-1.112500" y1="-0.050518" x2="-1.137500" y2="-0.093819" />
  <line x1="1.387500" y1="-1.753701" x2="1.362500" y2="-1.710400" />
  <line x1="-0.137500" y1="-0.671170" x2="-0.112500" y2="-0.627868" />
  <line x1="-0.487500" y1="1.493894" x2="-0.512500" y2="1.537195" />
  <line x1="-0.487500" y1="1.493894" x2="-1.362500" y2="0.988712" />
  <line x1="-3.887500" y1="-0.671170" x2="-3.012500" y2="-1.176351" />
  <line x1="1.587500" y1="-0.396928" x2="1.537500" y2="-0.396928" />
  <line x1="5.337500" y1="-3.572355" x2="5.337500" y2="-2.561992" />
  <line x1="-0.512500" y1="3.702259" x2="-1.387500" y2="3.197077" />
  <line x1="-3.887500" y1="-0.671170" x2="-3.862500" y2="-0.627868" />
  <line x1="0.487500" y1="-2.215582" x2="0.512500" y2="-2.258883" />
  <line x1="4.237500" y1="-0.050518" x2="4.262500" y2="-0.093819" />
  <line x1="5.137500" y1="0.411362" x2="4.262500" y2="-0.093819" />
  <line x1="1.762500" y1="0.454663" x2="1.737500" y2="0.411362" />
  <line x1="5.287500" y1="0.757772" x2="5.337500" y2="0.757772" />
  <line x1="-1.362500" y1="-1.176351" x2="-1.387500" y2="-1.133050" />
  <line x1="3.462500" y1="-2.489823" x2="3.462500" y2="-1.479460" />
  <line x1="-2.162500" y1="-0.396928" x2="-2.212500" y2="-0.396928" />
  <line x1="3.462500" y1="-1.479460" x2="3.412500" y2="-1.479460" />
  <line x1="-2.362500" y1="-1.753701" x2="-3.237500" y2="-2.258883" />
  <line x1="3.412500" y1="-0.324760" x2="3.412500" y2="0.685603" />
  <line x1="3.262500" y1="-0.671170" x2="3.237500" y2="-0.627868" />
  <line x1="3.637500" y1="-2.792932" x2="3.612500" y2="-2.836233" />
  <line x1="3.612500" y1="1.493894" x2="3.637500" y2="1.537195" />
  <line x1="3.237500" y1="-2.792932" x2="3.262500" y2="-2.836233" />
  <line x1="1.587500" y1="-3.572355" x2="1.587500" y2="-2.561992" />
  <line x1="3.462500" y1="-2.489823" x2="3.412500" y2="-2.489823" />
  <line x1="-1.987500" y1="0.454663" x2="-2.012500" y2="0.411362" />
  <line x1="-0.112500" y1="-2.792932" x2="0.762500" y2="-3.298113" />
  <line x1="-0.337500" y1="-2.489823" x2="-0.337500" y2="-1.479460" />
  <line x1="5.137500" y1="-1.753701" x2="4.262500" y2="-2.258883" />
  <line x1="-4.087500" y1="1.840304" x2="-4.087500" y2="2.850667" />
  <line x1="0.762500" y1="-3.298113" x2="0.737500" y2="-3.341415" />
  <line x1="1.737500" y1="0.411362" x2="2.612500" y2="-0.093819" />
  <line x1="-0.287500" y1="-1.479460" x2="-0.337500" y2="-1.479460" />
  <line x1="-2.212500" y1="-3.572355" x2="-2.162500" y2="-3.572355" />
  <line x1="-4.237500" y1="3.658957" x2="-5.112500" y2="3.153776" />
  <line x1="3.637500" y1="-0.627868" x2="4.512500" y2="-1.133050" />
  <line x1="5.112500" y1="-1.710400" x2="5.137500" y2="-1.753701" />
  <line x1="-0.287500" y1="-2.489823" x2="-0.337500" y2="-2.489823" />
  <line x1="-2.012500" y1="0.411362" x2="-1.137500" y2="-0.093819" />
  <line x1="-2.212500" y1="-2.561992" x2="-2.162500" y2="-2.561992" />
  <line x1="1.737500" y1="2.576426" x2="2.612500" y2="2.071244" />
  <line x1="3.262500" y1="3.658957" x2="2.387500" y2="3.153776" />
  <line x1="1.537500" y1="-3.572355" x2="1.587500" y2="-3.572355" />
  <line x1="-2.987500" y1="-3.298113" x2="-3.012500" y2="-3.341415" />
  <line x1="-5.762500" y1="2.576426" x2="-5.737500" y2="2.619727" />
  <line x1="1.362500" y1="0.454663" x2="1.387500" y2="0.411362" />
  <line x1="3.262500" y1="3.658957" x2="3.237500" y2="3.702259" />
  <line x1="-0.287500" y1="-2.489823" x2="-0.287500" y2="-1.479460" />
  <line x1="-0.287500" y1="0.685603" x2="-0.337500" y2="0.685603" />
  <line x1="1.387500" y1="0.411362" x2="0.512500" y2="-0.093819" />
  <line x1="3.412500" y1="-2.489823" x2="3.412500" y2="-1.479460" />
  <line x1="3.412500" y1="-0.324760" x2="3.412500" y2="0.685603" />
  <line x1="3.637500" y1="1.537195" x2="3.612500" y2="1.493894" />
  <line x1="3.237500" y1="3.702259" x2="2.362500" y2="3.197077" />
  <line x1="3.412500" y1="1.840304" x2="3.412500" y2="2.850667" />
  <line x1="-4.037500" y1="-2.489823" x2="-4.037500" y2="-1.479460" />
  <line x1="-4.237500" y1="-0.671170" x2="-4.262500" y2="-0.627868" />
  <line x1="1.762500" y1="-1.710400" x2="2.637500" y2="-2.215582" />
  <line x1="3.637500" y1="-0.627868" x2="4.512500" y2="-1.133050" />
  <line x1="1.762500" y1="2.619727" x2="2.637500" y2="2.114545" />
  <line x1="5.137500" y1="2.576426" x2="4.262500" y2="2.071244" />
  <line x1="-0.337500" y1="1.840304" x2="-0.337500" y2="2.850667" />
  <line x1="1.537500" y1="-2.561992" x2="1.587500" y2="-2.561992" />
  <line x1="1.762500" y1="0.454663" x2="2.637500" y2="-0.050518" />
  <line x1="1.587500" y1="-2.561992" x2="1.537500" y2="-2.561992" />
  <line x1="-0.337500" y1="-0.324760" x2="-0.337500" y2="0.685603" />
  <line x1="3.462500" y1="1.840304" x2="3.462500" y2="2.850667" />
  <line x1="-1.987500" y1="-1.710400" x2="-1.112500" y2="-2.215582" />
  <line x1="-0.112500" y1="-0.627868" x2="0.762500" y2="-1.133050" />
  <line x1="-5.762500" y1="2.576426" x2="-4.887500" y2="2.071244" />
  <line x1="2.387500" y1="3.153776" x2="2.362500" y2="3.197077" />
  <line x1="-4.262500" y1="1.537195" x2="-4.237500" y2="1.493894" />
  <line x1="1.587500" y1="1.768135" x2="1.537500" y2="1.768135" />
  <line x1="1.587500" y1="-1.407291" x2="1.587500" y2="-0.396928" />
  <line x1="5.287500" y1="-1.407291" x2="5.287500" y2="-0.396928" />
  <line x1="1.587500" y1="0.757772" x2="1.537500" y2="0.757772" />
  <line x1="-2.162500" y1="-3.572355" x2="-2.162500" y2="-2.561992" />
  <line x1="3.412500" y1="1.840304" x2="3.412500" y2="2.850667" />
  <line x1="0.737500" y1="3.153776" x2="0.762500" y2="3.197077" />
  <line x1="-2.212500" y1="-3.572355" x2="-2.212500" y2="-2.561992" />
  <line x1="-4.037500" y1="-0.324760" x2="-4.037500" y2="0.685603" />
  <line x1="5.112500" y1="-1.710400" x2="4.237500" y2="-2.215582" />
  <line x1="-0.287500" y1="1.840304" x2="-0.287500" y2="2.850667" />
  <line x1="1.762500" y1="-1.710400" x2="1.737500" y2="-1.753701" />
  <line x1="1.537500" y1="0.757772" x2="1.537500" y2="1.768135" />
  <line x1="-1.987500" y1="2.619727" x2="-1.112500" y2="2.114545" />
  <line x1="-1.362500" y1="3.153776" x2="-1.387500" y2="3.197077" />
  <line x1="3.262500" y1="1.493894" x2="2.387500" y2="0.988712" />
  <line x1="3.237500" y1="1.537195" x2="2.362500" y2="1.032014" />
  <line x1="2.362500" y1="1.032014" x2="2.387500" y2="0.988712" />
  <line x1="-0.112500" y1="-2.792932" x2="-0.137500" y2="-2.836233" />
  <line x1="3.237500" y1="1.537195" x2="3.262500" y2="1.493894" />
  <line x1="-4.237500" y1="1.493894" x2="-4.262500" y2="1.537195" />
  <line x1="3.237500" y1="-0.627868" x2="2.362500" y2="-1.133050" />
  <line x1="4.512500" y1="1.032014" x2="4.487500" y2="0.988712" />
  <line x1="-0.337500" y1="0.685603" x2="-0.287500" y2="0.685603" />
  <line x1="2.362500" y1="-1.133050" x2="2.387500" y2="-1.176351" />
  <line x1="-2.162500" y1="-2.561992" x2="-2.212500" y2="-2.561992" />
  <line x1="-1.137500" y1="-2.258883" x2="-1.112500" y2="-2.215582" />
  <line x1="1.387500" y1="2.576426" x2="0.512500" y2="2.071244" />
  <line x1="-0.137500" y1="1.493894" x2="0.737500" y2="0.988712" />
  <line x1="1.537500" y1="0.757772" x2="1.587500" y2="0.757772" />
  <line x1="1.737500" y1="2.576426" x2="2.612500" y2="2.071244" />
  <line x1="5.137500" y1="0.411362" x2="5.112500" y2="0.454663" />
  <line x1="4.487500" y1="-1.176351" x2="4.512500" y2="-1.133050" />
  <line x1="-5.737500" y1="2.619727" x2="-4.862500" y2="2.114545" />
  <line x1="1.387500" y1="0.411362" x2="1.362500" y2="0.454663" />
  <line x1="-0.512500" y1="1.537195" x2="-0.487500" y2="1.493894" />
  <line x1="5.137500" y1="0.411362" x2="4.262500" y2="-0.093819" />
  <line x1="3.612500" y1="-0.671170" x2="4.487500" y2="-1.176351" />
  <line x1="1.737500" y1="-1.753701" x2="2.612500" y2="-2.258883" />
  <line x1="-4.262500" y1="-0.627868" x2="-5.137500" y2="-1.133050" />
  <line x1="5.337500" y1="0.757772" x2="5.337500" y2="1.768135" />
  <line x1="3.462500" y1="-2.489823" x2="3.462500" y2="-1.479460" />
  <line x1="1.362500" y1="2.619727" x2="1.387500" y2="2.576426" />
  <line x1="-0.287500" y1="-2.489823" x2="-0.287500" y2="-1.479460" />
  <line x1="-0.337500" y1="-2.489823" x2="-0.287500" y2="-2.489823" />
  <line x1="-0.112500" y1="3.702259" x2="0.762500" y2="3.197077" />
  <line x1="1.537500" y1="-1.407291" x2="1.537500" y2="-0.396928" />
  <line x1="-4.887500" y1="-2.258883" x2="-4.862500" y2="-2.215582" />
  <line x1="3.262500" y1="1.493894" x2="2.387500" y2="0.988712" />
  <line x1="3.262500" y1="1.493894" x2="3.237500" y2="1.537195" />
  <line x1="-4.087500" y1="-2.489823" x2="-4.087500" y2="-1.479460" />
  <line x1="3.637500" y1="1.537195" x2="4.512500" y2="1.032014" />
  <line x1="-2.012500" y1="2.576426" x2="-1.987500" y2="2.619727" />
  <line x1="-4.037500" y1="-1.479460" x2="-4.087500" y2="-1.479460" />
  <line x1="4.512500" y1="-1.133050" x2="4.487500" y2="-1.176351" />
  <line x1="2.637500" y1="2.114545" x2="2.612500" y2="2.071244" />
  <line x1="1.587500" y1="0.757772" x2="1.587500" y2="1.768135" />
  <line x1="5.112500" y1="2.619727" x2="4.237500" y2="2.114545" />
  <line x1="-0.512500" y1="-0.627868" x2="-1.387500" y2="-1.133050" />
  <line x1="-0.137500" y1="-0.671170" x2="0.737500" y2="-1.176351" />
  <line x1="-1.987500" y1="-1.710400" x2="-1.112500" y2="-2.215582" />
  <line x1="-2.012500" y1="-1.753701" x2="-1.137500" y2="-2.258883" />
  <line x1="1.587500" y1="0.757772" x2="1.587500" y2="1.768135" />
  <line x1="-2.362500" y1="0.411362" x2="-2.387500" y2="0.454663" />
  <line x1="-4.087500" y1="-2.489823" x2="-4.037500" y2="-2.489823" />
  <line x1="5.112500" y1="-1.710400" x2="4.237500" y2="-2.215582" />
  <line x1="5.112500" y1="2.619727" x2="4.237500" y2="2.114545" />
  <line x1="3.612500" y1="3.658957" x2="4.487500" y2="3.153776" />
  <line x1="5.137500" y1="2.576426" x2="5.112500" y2="2.619727" />
  <line x1="-2.387500" y1="-1.710400" x2="-3.262500" y2="-2.215582" />
  <line x1="4.487500" y1="3.153776" x2="4.512500" y2="3.197077" />
  <line x1="-5.762500" y1="-1.753701" x2="-4.887500" y2="-2.258883" />
  <line x1="5.287500" y1="-0.396928" x2="5.337500" y2="-0.396928" />
  <line x1="-5.962500" y1="0.757772" x2="-5.962500" y2="1.768135" />
  <line x1="-5.112500" y1="3.153776" x2="-5.137500" y2="3.197077" />
  <line x1="1.362500" y1="0.454663" x2="0.487500" y2="-0.050518" />
  <line x1="-0.137500" y1="1.493894" x2="0.737500" y2="0.988712" />
  <line x1="3.612500" y1="3.658957" x2="3.637500" y2="3.702259" />
  <line x1="1.362500" y1="2.619727" x2="0.487500" y2="2.114545" />
  <line x1="-3.237500" y1="-2.258883" x2="-3.262500" y2="-2.215582" />
  <line x1="-4.262500" y1="1.537195" x2="-5.137500" y2="1.032014" />
  <line x1="3.412500" y1="1.840304" x2="3.462500" y2="1.840304" />
  <line x1="-3.237500" y1="2.071244" x2="-3.262500" y2="2.114545" />
  <line x1="-0.137500" y1="1.493894" x2="-0.112500" y2="1.537195" />
  <line x1="3.262500" y1="-2.836233" x2="2.387500" y2="-3.341415" />
  <line x1="1.537500" y1="-0.396928" x2="1.587500" y2="-0.396928" />
  <line x1="-0.487500" y1="-0.671170" x2="-0.512500" y2="-0.627868" />
  <line x1="-3.887500" y1="1.493894" x2="-3.012500" y2="0.988712" />
  <line x1="1.387500" y1="0.411362" x2="0.512500" y2="-0.093819" />
  <line x1="4.237500" y1="2.114545" x2="4.262500" y2="2.071244" />
  <line x1="-3.887500" y1="1.493894" x2="-3.862500" y2="1.537195" />
  <line x1="-4.862500" y1="2.114545" x2="-4.887500" y2="2.071244" />
  <line x1="-2.362500" y1="-1.753701" x2="-3.237500" y2="-2.258883" />
  <line x1="1.762500" y1="2.619727" x2="1.737500" y2="2.576426" />
  <line x1="1.737500" y1="-1.753701" x2="1.762500" y2="-1.710400" />
  <line x1="-0.487500" y1="-0.671170" x2="-1.362500" y2="-1.176351" />
  <line x1="-0.487500" y1="-2.836233" x2="-1.362500" y2="-3.341415" />
  <line x1="-4.237500" y1="1.493894" x2="-5.112500" y2="0.988712" />
  <line x1="-2.162500" y1="1.768135" x2="-2.212500" y2="1.768135" />
  <line x1="-5.137500" y1="1.032014" x2="-5.112500" y2="0.988712" />
 </g>
<g stroke="#f0f">
  <line x1="5.312625" y1="2.706329" x2="5.312625" y2="-3.788861" />
  <line x1="-4.062375" y1="-2.706329" x2="-5.937375" y2="-3.788861" />
  <line x1="-2.187375" y1="-3.788861" x2="-4.062375" y2="-2.706329" />
  <line x1="3.437625" y1="3.788861" x2="5.312625" y2="2.706329" />
  <line x1="1.562625" y1="2.706329" x2="3.437625" y2="3.788861" />
  <line x1="-0.312375" y1="-2.706329" x2="-2.187375" y2="-3.788861" />
  <line x1="-0.312375" y1="3.788861" x2="1.562625" y2="2.706329" />
  <line x1="-4.062375" y1="3.788861" x2="-2.187375" y2="2.706329" />
  <line x1="-2.187375" y1="2.706329" x2="-0.312375" y2="3.788861" />
  <line x1="1.562625" y1="-3.788861" x2="-0.312375" y2="-2.706329" />
  <line x1="3.437625" y1="-2.706329" x2="1.562625" y2="-3.788861" />
  <line x1="5.312625" y1="-3.788861" x2="3.437625" y2="-2.706329" />
  <line x1="-5.937375" y1="2.706329" x2="-4.062375" y2="3.788861" />
  <line x1="-5.937375" y1="-3.788861" x2="-5.937375" y2="2.706329" />
 </g>
 </g>
</svg>
