<?xml version="1.0" ?>
<svg xmlns="http://www.w3.org/2000/svg"
  height="8.660254in" width="13.125000in" 
  units="in"
  viewBox="0 0 13.125000 8.660254">
 <g fill="none" stroke-width="0.010000"
    transform="translate(6.562500,4.330127) scale(1, -1)">
<g stroke="#00f">
  <line x1="-0.287500" y1="-1.551629" x2="-0.287500" y2="-0.974279" />
  <line x1="-5.887500" y1="-2.764064" x2="-5.387500" y2="-3.052740" />
  <line x1="-2.162500" y1="-2.634161" x2="-2.162500" y2="-2.056810" />
  <line x1="-3.487500" y1="-1.926907" x2="-3.512500" y2="-1.970208" />
  <line x1="-0.337500" y1="-3.716692" x2="-0.287500" y2="-3.716692" />
  <line x1="-3.353349" y1="-2.080395" x2="-2.853349" y2="-2.946420" />
  <line x1="-2.262500" y1="-0.555700" x2="-2.762500" y2="-0.844375" />
  <line x1="-0.237500" y1="0.526832" x2="0.262500" y2="0.238157" />
  <line x1="-0.437500" y1="-3.092173" x2="-0.437500" y2="-3.042173" />
  <line x1="1.478349" y1="0.276175" x2="0.978349" y2="1.142201" />
  <line x1="1.587500" y1="-2.634161" x2="1.537500" y2="-2.634161" />
  <line x1="-0.353349" y1="-0.781357" x2="-0.853349" y2="0.084669" />
  <line x1="-5.862500" y1="1.609364" x2="-5.362500" y2="1.320689" />
  <line x1="-2.262500" y1="-0.555700" x2="-2.237500" y2="-0.599001" />
  <line x1="-0.237500" y1="-1.638231" x2="-0.262500" y2="-1.681533" />
  <line x1="-2.212500" y1="-2.634161" x2="-2.212500" y2="-2.056810" />
  <line x1="-1.637500" y1="1.277387" x2="-1.612500" y2="1.320689" />
  <line x1="-0.337500" y1="0.613435" x2="-0.287500" y2="0.613435" />
  <line x1="-2.237500" y1="-0.599001" x2="-2.737500" y2="-0.887676" />
  <line x1="-0.237500" y1="0.526832" x2="-0.262500" y2="0.483531" />
  <line x1="0.812500" y1="-3.092173" x2="-0.187500" y2="-3.092173" />
  <line x1="-2.212500" y1="1.695966" x2="-2.212500" y2="2.273317" />
  <line x1="-2.212500" y1="-2.634161" x2="-2.162500" y2="-2.634161" />
  <line x1="-4.187500" y1="-3.092173" x2="-4.187500" y2="-3.042173" />
  <line x1="-2.162500" y1="2.273317" x2="-2.212500" y2="2.273317" />
  <line x1="2.137500" y1="1.320689" x2="2.112500" y2="1.277387" />
  <line x1="-2.162500" y1="-2.634161" x2="-2.212500" y2="-2.634161" />
  <line x1="-2.137500" y1="-2.764064" x2="-2.112500" y2="-2.720763" />
  <line x1="-5.887500" y1="-2.764064" x2="-5.862500" y2="-2.720763" />
  <line x1="-4.087500" y1="-3.716692" x2="-4.037500" y2="-3.716692" />
  <line x1="-2.762500" y1="-0.844375" x2="-2.737500" y2="-0.887676" />
  <line x1="-4.037500" y1="-3.716692" x2="-4.037500" y2="-3.139342" />
  <line x1="-2.271651" y1="-1.888888" x2="-2.771651" y2="-1.022863" />
  <line x1="-1.637500" y1="-3.052740" x2="-1.612500" y2="-3.009438" />
  <line x1="-4.087500" y1="-3.139342" x2="-4.037500" y2="-3.139342" />
  <line x1="-2.262500" y1="3.774427" x2="-2.762500" y2="3.485752" />
  <line x1="-2.237500" y1="1.566063" x2="-2.737500" y2="1.277387" />
  <line x1="-2.228349" y1="-1.863888" x2="-2.728349" y2="-0.997863" />
  <line x1="-0.978349" y1="-2.105395" x2="-1.478349" y2="-2.971420" />
  <line x1="-4.103349" y1="-2.946420" x2="-4.146651" y2="-2.971420" />
  <line x1="-2.937500" y1="-3.042173" x2="-3.937500" y2="-3.042173" />
  <line x1="-5.962500" y1="-2.634161" x2="-5.912500" y2="-2.634161" />
  <line x1="-2.737500" y1="-3.052740" x2="-2.762500" y2="-3.009438" />
  <line x1="0.812500" y1="-0.877110" x2="-0.187500" y2="-0.877110" />
  <line x1="2.687500" y1="0.155422" x2="2.687500" y2="0.205422" />
  <line x1="5.237500" y1="-0.555700" x2="5.262500" y2="-0.599001" />
  <line x1="3.362500" y1="0.526832" x2="3.387500" y2="0.483531" />
  <line x1="0.987500" y1="-0.844375" x2="1.012500" y2="-0.887676" />
  <line x1="-3.512500" y1="-1.970208" x2="-3.487500" y2="-1.926907" />
  <line x1="2.771651" y1="0.059669" x2="2.271651" y2="-0.806357" />
  <line x1="-2.937500" y1="-3.092173" x2="-3.937500" y2="-3.092173" />
  <line x1="-1.437500" y1="-3.042173" x2="-0.437500" y2="-3.042173" />
  <line x1="-2.896651" y1="-0.997863" x2="-2.853349" y2="-1.022863" />
  <line x1="-4.021651" y1="-2.946420" x2="-3.978349" y2="-2.971420" />
  <line x1="-4.137500" y1="2.691896" x2="-4.637500" y2="2.403220" />
  <line x1="-5.387500" y1="-3.052740" x2="-5.362500" y2="-3.009438" />
  <line x1="-3.396651" y1="2.224732" x2="-2.896651" y2="1.358707" />
  <line x1="-2.237500" y1="1.566063" x2="-2.262500" y2="1.609364" />
  <line x1="-2.728349" y1="-0.997863" x2="-2.771651" y2="-1.022863" />
  <line x1="-0.287500" y1="-3.716692" x2="-0.287500" y2="-3.139342" />
  <line x1="-4.137500" y1="-1.638231" x2="-4.637500" y2="-1.926907" />
  <line x1="-2.937500" y1="-3.092173" x2="-2.937500" y2="-3.042173" />
  <line x1="3.362500" y1="2.691896" x2="2.862500" y2="2.403220" />
  <line x1="-5.962500" y1="-2.634161" x2="-5.962500" y2="-2.056810" />
  <line x1="-3.937500" y1="-3.092173" x2="-3.937500" y2="-3.042173" />
  <line x1="-3.312500" y1="-2.009642" x2="-2.312500" y2="-2.009642" />
  <line x1="1.021651" y1="3.332264" x2="0.978349" y2="3.307264" />
  <line x1="-0.287500" y1="-3.716692" x2="-0.337500" y2="-3.716692" />
  <line x1="-2.112500" y1="1.609364" x2="-2.137500" y2="1.566063" />
  <line x1="1.478349" y1="-1.888888" x2="0.978349" y2="-1.022863" />
  <line x1="-4.728349" y1="-2.105395" x2="-5.228349" y2="-2.971420" />
  <line x1="-4.771651" y1="2.249732" x2="-5.271651" y2="1.383707" />
  <line x1="-2.228349" y1="0.301175" x2="-2.271651" y2="0.276175" />
  <line x1="-2.237500" y1="-2.764064" x2="-2.737500" y2="-3.052740" />
  <line x1="3.512500" y1="2.691896" x2="4.012500" y2="2.403220" />
  <line x1="5.187500" y1="2.320485" x2="5.187500" y2="2.370485" />
  <line x1="-4.012500" y1="-1.681533" x2="-3.512500" y2="-1.970208" />
  <line x1="-4.812500" y1="-2.009642" x2="-4.812500" y2="-1.959642" />
  <line x1="-0.337500" y1="-3.139342" x2="-0.287500" y2="-3.139342" />
  <line x1="1.521651" y1="0.301175" x2="1.478349" y2="0.276175" />
  <line x1="-4.771651" y1="-2.080395" x2="-5.271651" y2="-2.946420" />
  <line x1="-0.262500" y1="0.483531" x2="-0.237500" y2="0.526832" />
  <line x1="-5.896651" y1="2.466239" x2="-5.853349" y2="2.441239" />
  <line x1="-3.987500" y1="-1.638231" x2="-3.487500" y2="-1.926907" />
  <line x1="-4.087500" y1="-1.551629" x2="-4.087500" y2="-0.974279" />
  <line x1="-5.812500" y1="2.320485" x2="-5.812500" y2="2.370485" />
  <line x1="-3.312500" y1="-2.009642" x2="-3.312500" y2="-1.959642" />
  <line x1="-4.037500" y1="-3.716692" x2="-4.087500" y2="-3.716692" />
  <line x1="-2.853349" y1="-2.946420" x2="-2.896651" y2="-2.971420" />
  <line x1="-2.162500" y1="-2.056810" x2="-2.212500" y2="-2.056810" />
  <line x1="-4.103349" y1="-0.781357" x2="-4.603349" y2="0.084669" />
  <line x1="0.237500" y1="0.194856" x2="0.262500" y2="0.238157" />
  <line x1="-4.012500" y1="0.483531" x2="-3.987500" y2="0.526832" />
  <line x1="0.353349" y1="-1.863888" x2="0.396651" y2="-1.888888" />
  <line x1="-5.271651" y1="-0.781357" x2="-5.228349" y2="-0.806357" />
  <line x1="-2.762500" y1="3.485752" x2="-2.737500" y2="3.442451" />
  <line x1="1.521651" y1="-1.863888" x2="1.021651" y2="-0.997863" />
  <line x1="-1.612500" y1="1.320689" x2="-1.637500" y2="1.277387" />
  <line x1="-3.987500" y1="0.526832" x2="-3.487500" y2="0.238157" />
  <line x1="5.237500" y1="1.609364" x2="4.737500" y2="1.320689" />
  <line x1="-4.137500" y1="0.526832" x2="-4.112500" y2="0.483531" />
  <line x1="3.412500" y1="0.613435" x2="3.462500" y2="0.613435" />
  <line x1="1.637500" y1="1.609364" x2="2.137500" y2="1.320689" />
  <line x1="-4.037500" y1="-1.551629" x2="-4.087500" y2="-1.551629" />
  <line x1="4.603349" y1="-0.997863" x2="4.646651" y2="-1.022863" />
  <line x1="-2.103349" y1="0.276175" x2="-1.603349" y2="1.142201" />
  <line x1="-0.337500" y1="-3.716692" x2="-0.337500" y2="-3.139342" />
  <line x1="-4.087500" y1="-1.551629" x2="-4.087500" y2="-0.974279" />
  <line x1="-0.362500" y1="-1.681533" x2="-0.862500" y2="-1.970208" />
  <line x1="-0.353349" y1="-0.781357" x2="-0.396651" y2="-0.806357" />
  <line x1="-4.037500" y1="-0.974279" x2="-4.087500" y2="-0.974279" />
  <line x1="-2.312500" y1="2.320485" x2="-2.312500" y2="2.370485" />
  <line x1="-5.187500" y1="-0.877110" x2="-4.187500" y2="-0.877110" />
  <line x1="-5.187500" y1="-0.927110" x2="-4.187500" y2="-0.927110" />
  <line x1="4.103349" y1="-2.105395" x2="4.603349" y2="-2.971420" />
  <line x1="-3.987500" y1="0.526832" x2="-4.012500" y2="0.483531" />
  <line x1="4.603349" y1="3.332264" x2="4.103349" y2="2.466239" />
  <line x1="1.603349" y1="0.301175" x2="2.103349" y2="1.167201" />
  <line x1="0.812500" y1="-3.042173" x2="-0.187500" y2="-3.042173" />
  <line x1="2.228349" y1="-0.781357" x2="2.271651" y2="-0.806357" />
  <line x1="-3.396651" y1="0.301175" x2="-3.353349" y2="0.276175" />
  <line x1="-2.146651" y1="0.301175" x2="-1.646651" y2="1.167201" />
  <line x1="0.353349" y1="0.301175" x2="0.396651" y2="0.276175" />
  <line x1="-2.853349" y1="1.142201" x2="-3.353349" y2="0.276175" />
  <line x1="-5.862500" y1="-0.555700" x2="-5.362500" y2="-0.844375" />
  <line x1="-4.137500" y1="0.526832" x2="-4.637500" y2="0.238157" />
  <line x1="-1.478349" y1="-0.997863" x2="-0.978349" y2="-1.863888" />
  <line x1="1.012500" y1="-0.887676" x2="0.987500" y2="-0.844375" />
  <line x1="-2.896651" y1="1.167201" x2="-3.396651" y2="0.301175" />
  <line x1="-1.437500" y1="-0.927110" x2="-1.437500" y2="-0.877110" />
  <line x1="-4.112500" y1="-1.681533" x2="-4.612500" y2="-1.970208" />
  <line x1="5.262500" y1="-2.764064" x2="4.762500" y2="-3.052740" />
  <line x1="-1.637500" y1="-0.887676" x2="-1.612500" y2="-0.844375" />
  <line x1="4.146651" y1="2.249732" x2="4.103349" y2="2.224732" />
  <line x1="-2.162500" y1="-0.469097" x2="-2.212500" y2="-0.469097" />
  <line x1="2.228349" y1="3.307264" x2="2.728349" y2="2.441239" />
  <line x1="-4.112500" y1="0.483531" x2="-4.612500" y2="0.194856" />
  <line x1="-4.637500" y1="0.238157" x2="-4.612500" y2="0.194856" />
  <line x1="-1.521651" y1="-0.781357" x2="-1.478349" y2="-0.806357" />
  <line x1="-4.146651" y1="-0.806357" x2="-4.646651" y2="0.059669" />
  <line x1="1.521651" y1="-1.863888" x2="1.478349" y2="-1.888888" />
  <line x1="-4.087500" y1="-1.551629" x2="-4.037500" y2="-1.551629" />
  <line x1="-0.287500" y1="-1.551629" x2="-0.287500" y2="-0.974279" />
  <line x1="-2.146651" y1="0.301175" x2="-2.103349" y2="0.276175" />
  <line x1="-4.187500" y1="-0.927110" x2="-4.187500" y2="-0.877110" />
  <line x1="-4.012500" y1="0.483531" x2="-3.512500" y2="0.194856" />
  <line x1="-4.037500" y1="0.613435" x2="-4.037500" y2="1.190785" />
  <line x1="-4.103349" y1="-0.781357" x2="-4.146651" y2="-0.806357" />
  <line x1="1.537500" y1="-0.469097" x2="1.537500" y2="0.108253" />
  <line x1="-5.228349" y1="-0.997863" x2="-4.728349" y2="-1.863888" />
  <line x1="-2.262500" y1="-0.555700" x2="-2.762500" y2="-0.844375" />
  <line x1="-1.646651" y1="1.167201" x2="-1.603349" y2="1.142201" />
  <line x1="-5.812500" y1="0.155422" x2="-5.812500" y2="0.205422" />
  <line x1="-2.112500" y1="-2.720763" x2="-1.612500" y2="-3.009438" />
  <line x1="-4.146651" y1="-2.971420" x2="-4.646651" y2="-2.105395" />
  <line x1="-4.603349" y1="-2.080395" x2="-4.646651" y2="-2.105395" />
  <line x1="-5.862500" y1="1.609364" x2="-5.362500" y2="1.320689" />
  <line x1="-4.087500" y1="-3.716692" x2="-4.087500" y2="-3.139342" />
  <line x1="-4.037500" y1="-1.551629" x2="-4.037500" y2="-0.974279" />
  <line x1="-1.521651" y1="-2.946420" x2="-1.478349" y2="-2.971420" />
  <line x1="-0.271651" y1="1.383707" x2="-0.228349" y2="1.358707" />
  <line x1="-5.862500" y1="1.609364" x2="-5.887500" y2="1.566063" />
  <line x1="-5.887500" y1="1.566063" x2="-5.387500" y2="1.277387" />
  <line x1="2.103349" y1="-0.997863" x2="2.146651" y2="-1.022863" />
  <line x1="-4.037500" y1="-1.551629" x2="-4.037500" y2="-0.974279" />
  <line x1="0.437500" y1="-1.959642" x2="1.437500" y2="-1.959642" />
  <line x1="-0.853349" y1="0.084669" x2="-0.896651" y2="0.059669" />
  <line x1="-5.362500" y1="1.320689" x2="-5.387500" y2="1.277387" />
  <line x1="-0.287500" y1="-3.139342" x2="-0.337500" y2="-3.139342" />
  <line x1="0.262500" y1="0.238157" x2="0.237500" y2="0.194856" />
  <line x1="-5.853349" y1="0.276175" x2="-5.353349" y2="1.142201" />
  <line x1="-4.012500" y1="0.483531" x2="-3.512500" y2="0.194856" />
  <line x1="-3.987500" y1="2.691896" x2="-3.487500" y2="2.403220" />
  <line x1="-5.896651" y1="0.301175" x2="-5.396651" y2="1.167201" />
  <line x1="-5.862500" y1="-2.720763" x2="-5.362500" y2="-3.009438" />
  <line x1="-5.187500" y1="-0.927110" x2="-5.187500" y2="-0.877110" />
  <line x1="-4.637500" y1="-1.926907" x2="-4.612500" y2="-1.970208" />
  <line x1="-5.896651" y1="0.301175" x2="-5.853349" y2="0.276175" />
  <line x1="-5.853349" y1="-1.888888" x2="-5.353349" y2="-1.022863" />
  <line x1="-5.396651" y1="1.167201" x2="-5.353349" y2="1.142201" />
  <line x1="2.771651" y1="-2.105395" x2="2.271651" y2="-2.971420" />
  <line x1="3.362500" y1="0.526832" x2="2.862500" y2="0.238157" />
  <line x1="-0.271651" y1="-2.946420" x2="-0.228349" y2="-2.971420" />
  <line x1="1.478349" y1="2.441239" x2="0.978349" y2="3.307264" />
  <line x1="-4.087500" y1="-0.974279" x2="-4.037500" y2="-0.974279" />
  <line x1="-3.487500" y1="0.238157" x2="-3.512500" y2="0.194856" />
  <line x1="-0.978349" y1="0.301175" x2="-1.021651" y2="0.276175" />
  <line x1="-4.112500" y1="0.483531" x2="-4.612500" y2="0.194856" />
  <line x1="-5.396651" y1="3.332264" x2="-5.353349" y2="3.307264" />
  <line x1="-4.603349" y1="0.084669" x2="-4.646651" y2="0.059669" />
  <line x1="1.487500" y1="-0.555700" x2="1.512500" y2="-0.599001" />
  <line x1="5.337500" y1="2.273317" x2="5.287500" y2="2.273317" />
  <line x1="-4.812500" y1="0.155422" x2="-4.812500" y2="0.205422" />
  <line x1="-4.112500" y1="0.483531" x2="-4.137500" y2="0.526832" />
  <line x1="0.812500" y1="-3.092173" x2="0.812500" y2="-3.042173" />
  <line x1="-0.387500" y1="0.526832" x2="-0.887500" y2="0.238157" />
  <line x1="-2.271651" y1="2.441239" x2="-2.771651" y2="3.307264" />
  <line x1="-4.137500" y1="0.526832" x2="-4.637500" y2="0.238157" />
  <line x1="1.021651" y1="-0.997863" x2="0.978349" y2="-1.022863" />
  <line x1="-5.962500" y1="-0.469097" x2="-5.962500" y2="0.108253" />
  <line x1="-0.362500" y1="0.483531" x2="-0.862500" y2="0.194856" />
  <line x1="-5.912500" y1="-2.634161" x2="-5.912500" y2="-2.056810" />
  <line x1="-4.612500" y1="0.194856" x2="-4.637500" y2="0.238157" />
  <line x1="-1.437500" y1="-0.927110" x2="-0.437500" y2="-0.927110" />
  <line x1="-5.271651" y1="-1.022863" x2="-4.771651" y2="-1.888888" />
  <line x1="-5.271651" y1="1.142201" x2="-4.771651" y2="0.276175" />
  <line x1="-4.112500" y1="-1.681533" x2="-4.612500" y2="-1.970208" />
  <line x1="5.237500" y1="1.609364" x2="5.262500" y2="1.566063" />
  <line x1="3.462500" y1="-3.716692" x2="3.412500" y2="-3.716692" />
  <line x1="-5.962500" y1="-0.469097" x2="-5.912500" y2="-0.469097" />
  <line x1="2.271651" y1="-0.997863" x2="2.228349" y2="-1.022863" />
  <line x1="-0.396651" y1="-2.971420" x2="-0.896651" y2="-2.105395" />
  <line x1="-5.228349" y1="1.167201" x2="-4.728349" y2="0.301175" />
  <line x1="5.262500" y1="1.566063" x2="4.762500" y2="1.277387" />
  <line x1="3.412500" y1="-1.551629" x2="3.412500" y2="-0.974279" />
  <line x1="3.312500" y1="-0.927110" x2="3.312500" y2="-0.877110" />
  <line x1="-2.137500" y1="-2.764064" x2="-1.637500" y2="-3.052740" />
  <line x1="5.337500" y1="-2.056810" x2="5.287500" y2="-2.056810" />
  <line x1="-1.062500" y1="0.155422" x2="-1.062500" y2="0.205422" />
  <line x1="-1.437500" y1="1.287954" x2="-0.437500" y2="1.287954" />
  <line x1="-4.728349" y1="0.301175" x2="-4.771651" y2="0.276175" />
  <line x1="3.387500" y1="-1.681533" x2="3.362500" y2="-1.638231" />
  <line x1="-2.237500" y1="-2.764064" x2="-2.262500" y2="-2.720763" />
  <line x1="-4.812500" y1="0.205422" x2="-5.812500" y2="0.205422" />
  <line x1="-4.812500" y1="2.320485" x2="-5.812500" y2="2.320485" />
  <line x1="2.687500" y1="-2.009642" x2="1.687500" y2="-2.009642" />
  <line x1="-4.812500" y1="0.155422" x2="-5.812500" y2="0.155422" />
  <line x1="-4.728349" y1="2.224732" x2="-5.228349" y2="1.358707" />
  <line x1="3.412500" y1="-0.974279" x2="3.462500" y2="-0.974279" />
  <line x1="0.262500" y1="-1.926907" x2="0.237500" y2="-1.970208" />
  <line x1="3.562500" y1="-3.092173" x2="3.562500" y2="-3.042173" />
  <line x1="-0.362500" y1="0.483531" x2="-0.387500" y2="0.526832" />
  <line x1="-2.212500" y1="1.695966" x2="-2.212500" y2="2.273317" />
  <line x1="-0.262500" y1="-1.681533" x2="0.237500" y2="-1.970208" />
  <line x1="-5.187500" y1="-3.042173" x2="-4.187500" y2="-3.042173" />
  <line x1="1.537500" y1="1.695966" x2="1.587500" y2="1.695966" />
  <line x1="-2.853349" y1="-0.781357" x2="-2.896651" y2="-0.806357" />
  <line x1="-2.212500" y1="0.108253" x2="-2.162500" y2="0.108253" />
  <line x1="-3.312500" y1="0.205422" x2="-2.312500" y2="0.205422" />
  <line x1="3.487500" y1="0.483531" x2="3.512500" y2="0.526832" />
  <line x1="3.987500" y1="0.194856" x2="4.012500" y2="0.238157" />
  <line x1="4.562500" y1="-0.927110" x2="3.562500" y2="-0.927110" />
  <line x1="-5.887500" y1="-0.599001" x2="-5.862500" y2="-0.555700" />
  <line x1="-4.087500" y1="1.190785" x2="-4.037500" y2="1.190785" />
  <line x1="-2.937500" y1="1.237954" x2="-2.937500" y2="1.287954" />
  <line x1="-0.437500" y1="-0.927110" x2="-0.437500" y2="-0.877110" />
  <line x1="0.896651" y1="-2.946420" x2="0.853349" y2="-2.971420" />
  <line x1="-5.228349" y1="-0.997863" x2="-5.271651" y2="-1.022863" />
  <line x1="2.112500" y1="-0.887676" x2="2.137500" y2="-0.844375" />
  <line x1="4.771651" y1="1.167201" x2="4.728349" y2="1.142201" />
  <line x1="3.362500" y1="2.691896" x2="3.387500" y2="2.648594" />
  <line x1="3.412500" y1="-1.551629" x2="3.462500" y2="-1.551629" />
  <line x1="2.771651" y1="0.301175" x2="2.728349" y2="0.276175" />
  <line x1="-2.262500" y1="1.609364" x2="-2.762500" y2="1.320689" />
  <line x1="-2.212500" y1="-0.469097" x2="-2.212500" y2="0.108253" />
  <line x1="1.012500" y1="-3.052740" x2="0.987500" y2="-3.009438" />
  <line x1="4.187500" y1="0.155422" x2="5.187500" y2="0.155422" />
  <line x1="-2.162500" y1="1.695966" x2="-2.212500" y2="1.695966" />
  <line x1="-0.353349" y1="-2.946420" x2="-0.853349" y2="-2.080395" />
  <line x1="1.612500" y1="1.566063" x2="2.112500" y2="1.277387" />
  <line x1="3.512500" y1="-1.638231" x2="3.487500" y2="-1.681533" />
  <line x1="2.728349" y1="2.249732" x2="2.771651" y2="2.224732" />
  <line x1="-2.262500" y1="1.609364" x2="-2.237500" y2="1.566063" />
  <line x1="2.687500" y1="0.205422" x2="1.687500" y2="0.205422" />
  <line x1="-5.862500" y1="-0.555700" x2="-5.887500" y2="-0.599001" />
  <line x1="-2.212500" y1="-0.469097" x2="-2.212500" y2="0.108253" />
  <line x1="4.146651" y1="0.084669" x2="4.646651" y2="-0.781357" />
  <line x1="-2.137500" y1="1.566063" x2="-1.637500" y2="1.277387" />
  <line x1="0.396651" y1="2.249732" x2="0.896651" y2="1.383707" />
  <line x1="4.103349" y1="0.059669" x2="4.603349" y2="-0.806357" />
  <line x1="2.687500" y1="2.320485" x2="2.687500" y2="2.370485" />
  <line x1="5.337500" y1="-2.634161" x2="5.287500" y2="-2.634161" />
  <line x1="2.887500" y1="-1.970208" x2="2.862500" y2="-1.926907" />
  <line x1="3.487500" y1="0.483531" x2="3.987500" y2="0.194856" />
  <line x1="1.512500" y1="-0.599001" x2="1.012500" y2="-0.887676" />
  <line x1="1.487500" y1="-0.555700" x2="0.987500" y2="-0.844375" />
  <line x1="-0.337500" y1="-1.551629" x2="-0.287500" y2="-1.551629" />
  <line x1="0.812500" y1="-0.927110" x2="-0.187500" y2="-0.927110" />
  <line x1="-2.937500" y1="-0.927110" x2="-3.937500" y2="-0.927110" />
  <line x1="-1.437500" y1="-3.092173" x2="-0.437500" y2="-3.092173" />
  <line x1="3.978349" y1="0.084669" x2="4.021651" y2="0.059669" />
  <line x1="4.187500" y1="2.320485" x2="4.187500" y2="2.370485" />
  <line x1="-3.521651" y1="0.084669" x2="-3.478349" y2="0.059669" />
  <line x1="-5.962500" y1="1.695966" x2="-5.912500" y2="1.695966" />
  <line x1="2.728349" y1="0.084669" x2="2.228349" y2="-0.781357" />
  <line x1="2.312500" y1="1.237954" x2="3.312500" y2="1.237954" />
  <line x1="-4.021651" y1="-0.781357" x2="-3.978349" y2="-0.806357" />
  <line x1="5.237500" y1="3.774427" x2="5.262500" y2="3.731126" />
  <line x1="-4.103349" y1="-2.946420" x2="-4.603349" y2="-2.080395" />
  <line x1="1.021651" y1="1.167201" x2="0.978349" y2="1.142201" />
  <line x1="1.587500" y1="-0.469097" x2="1.537500" y2="-0.469097" />
  <line x1="4.646651" y1="1.383707" x2="4.603349" y2="1.358707" />
  <line x1="-2.762500" y1="1.320689" x2="-2.737500" y2="1.277387" />
  <line x1="2.887500" y1="0.194856" x2="2.862500" y2="0.238157" />
  <line x1="3.462500" y1="0.613435" x2="3.412500" y2="0.613435" />
  <line x1="-2.271651" y1="0.276175" x2="-2.771651" y2="1.142201" />
  <line x1="2.687500" y1="0.155422" x2="1.687500" y2="0.155422" />
  <line x1="3.487500" y1="2.648594" x2="3.512500" y2="2.691896" />
  <line x1="0.353349" y1="0.059669" x2="0.853349" y2="-0.806357" />
  <line x1="2.228349" y1="1.383707" x2="2.271651" y2="1.358707" />
  <line x1="-2.228349" y1="0.301175" x2="-2.728349" y2="1.167201" />
  <line x1="-5.187500" y1="-3.092173" x2="-4.187500" y2="-3.092173" />
  <line x1="-5.862500" y1="-0.555700" x2="-5.362500" y2="-0.844375" />
  <line x1="-0.362500" y1="-1.681533" x2="-0.387500" y2="-1.638231" />
  <line x1="4.103349" y1="2.224732" x2="4.603349" y2="1.358707" />
  <line x1="1.512500" y1="-2.764064" x2="1.012500" y2="-3.052740" />
  <line x1="-2.737500" y1="-0.887676" x2="-2.762500" y2="-0.844375" />
  <line x1="-0.262500" y1="0.483531" x2="0.237500" y2="0.194856" />
  <line x1="-0.862500" y1="0.194856" x2="-0.887500" y2="0.238157" />
  <line x1="0.228349" y1="0.084669" x2="0.271651" y2="0.059669" />
  <line x1="-2.228349" y1="-1.863888" x2="-2.271651" y2="-1.888888" />
  <line x1="-1.021651" y1="0.084669" x2="-1.521651" y2="-0.781357" />
  <line x1="-5.962500" y1="-2.056810" x2="-5.912500" y2="-2.056810" />
  <line x1="-5.387500" y1="-0.887676" x2="-5.362500" y2="-0.844375" />
  <line x1="-4.112500" y1="-1.681533" x2="-4.137500" y2="-1.638231" />
  <line x1="4.737500" y1="1.320689" x2="4.762500" y2="1.277387" />
  <line x1="-2.937500" y1="-0.927110" x2="-2.937500" y2="-0.877110" />
  <line x1="5.237500" y1="1.609364" x2="4.737500" y2="1.320689" />
  <line x1="-2.728349" y1="1.167201" x2="-2.771651" y2="1.142201" />
  <line x1="-3.312500" y1="0.155422" x2="-2.312500" y2="0.155422" />
  <line x1="-0.262500" y1="-1.681533" x2="0.237500" y2="-1.970208" />
  <line x1="-2.062500" y1="0.155422" x2="-2.062500" y2="0.205422" />
  <line x1="-3.312500" y1="2.320485" x2="-2.312500" y2="2.320485" />
  <line x1="4.646651" y1="3.307264" x2="4.146651" y2="2.441239" />
  <line x1="-4.771651" y1="0.084669" x2="-5.271651" y2="-0.781357" />
  <line x1="0.353349" y1="2.224732" x2="0.853349" y2="1.358707" />
  <line x1="1.612500" y1="-2.764064" x2="2.112500" y2="-3.052740" />
  <line x1="-4.087500" y1="0.613435" x2="-4.037500" y2="0.613435" />
  <line x1="-0.237500" y1="2.691896" x2="0.262500" y2="2.403220" />
  <line x1="5.287500" y1="1.695966" x2="5.287500" y2="2.273317" />
  <line x1="3.512500" y1="0.526832" x2="4.012500" y2="0.238157" />
  <line x1="1.587500" y1="-0.469097" x2="1.587500" y2="0.108253" />
  <line x1="-3.512500" y1="0.194856" x2="-3.487500" y2="0.238157" />
  <line x1="-1.021651" y1="2.249732" x2="-0.978349" y2="2.224732" />
  <line x1="0.987500" y1="1.320689" x2="1.012500" y2="1.277387" />
  <line x1="-0.287500" y1="0.613435" x2="-0.337500" y2="0.613435" />
  <line x1="0.896651" y1="1.142201" x2="0.396651" y2="0.276175" />
  <line x1="1.487500" y1="1.609364" x2="0.987500" y2="1.320689" />
  <line x1="2.862500" y1="2.403220" x2="2.887500" y2="2.359919" />
  <line x1="3.521651" y1="-2.971420" x2="4.021651" y2="-2.105395" />
  <line x1="-0.287500" y1="1.190785" x2="-0.337500" y2="1.190785" />
  <line x1="-0.387500" y1="-1.638231" x2="-0.887500" y2="-1.926907" />
  <line x1="-2.212500" y1="-0.469097" x2="-2.162500" y2="-0.469097" />
  <line x1="-3.987500" y1="0.526832" x2="-3.487500" y2="0.238157" />
  <line x1="0.228349" y1="-2.080395" x2="0.271651" y2="-2.105395" />
  <line x1="1.612500" y1="3.731126" x2="2.112500" y2="3.442451" />
  <line x1="-3.312500" y1="0.155422" x2="-3.312500" y2="0.205422" />
  <line x1="4.187500" y1="2.370485" x2="5.187500" y2="2.370485" />
  <line x1="-3.987500" y1="-1.638231" x2="-4.012500" y2="-1.681533" />
  <line x1="-2.162500" y1="0.108253" x2="-2.212500" y2="0.108253" />
  <line x1="3.512500" y1="0.526832" x2="4.012500" y2="0.238157" />
  <line x1="-4.012500" y1="2.648594" x2="-3.987500" y2="2.691896" />
  <line x1="-5.812500" y1="-2.009642" x2="-5.812500" y2="-1.959642" />
  <line x1="-5.271651" y1="1.383707" x2="-5.228349" y2="1.358707" />
  <line x1="-0.237500" y1="0.526832" x2="0.262500" y2="0.238157" />
  <line x1="-0.228349" y1="1.358707" x2="0.271651" y2="2.224732" />
  <line x1="1.687500" y1="2.320485" x2="1.687500" y2="2.370485" />
  <line x1="4.187500" y1="0.205422" x2="5.187500" y2="0.205422" />
  <line x1="-0.337500" y1="-3.716692" x2="-0.337500" y2="-3.139342" />
  <line x1="-5.862500" y1="3.774427" x2="-5.362500" y2="3.485752" />
  <line x1="4.012500" y1="-1.926907" x2="3.987500" y2="-1.970208" />
  <line x1="4.562500" y1="-0.927110" x2="4.562500" y2="-0.877110" />
  <line x1="1.637500" y1="3.774427" x2="2.137500" y2="3.485752" />
  <line x1="-0.362500" y1="-1.681533" x2="-0.862500" y2="-1.970208" />
  <line x1="-1.478349" y1="1.167201" x2="-0.978349" y2="0.301175" />
  <line x1="-0.362500" y1="2.648594" x2="-0.862500" y2="2.359919" />
  <line x1="-1.478349" y1="3.332264" x2="-0.978349" y2="2.466239" />
  <line x1="1.637500" y1="3.774427" x2="1.612500" y2="3.731126" />
  <line x1="0.237500" y1="-1.970208" x2="0.262500" y2="-1.926907" />
  <line x1="-4.037500" y1="1.190785" x2="-4.087500" y2="1.190785" />
  <line x1="-2.262500" y1="3.774427" x2="-2.237500" y2="3.731126" />
  <line x1="-5.187500" y1="1.287954" x2="-4.187500" y2="1.287954" />
  <line x1="-2.853349" y1="1.383707" x2="-2.896651" y2="1.358707" />
  <line x1="-5.187500" y1="1.237954" x2="-4.187500" y2="1.237954" />
  <line x1="-0.237500" y1="-1.638231" x2="0.262500" y2="-1.926907" />
  <line x1="-3.987500" y1="2.691896" x2="-4.012500" y2="2.648594" />
  <line x1="-2.162500" y1="-0.469097" x2="-2.162500" y2="0.108253" />
  <line x1="1.637500" y1="1.609364" x2="2.137500" y2="1.320689" />
  <line x1="-4.037500" y1="-3.716692" x2="-4.037500" y2="-3.139342" />
  <line x1="-0.853349" y1="2.249732" x2="-0.896651" y2="2.224732" />
  <line x1="2.312500" y1="1.237954" x2="2.312500" y2="1.287954" />
  <line x1="1.603349" y1="2.466239" x2="1.646651" y2="2.441239" />
  <line x1="-0.337500" y1="-0.974279" x2="-0.287500" y2="-0.974279" />
  <line x1="0.812500" y1="-0.927110" x2="0.812500" y2="-0.877110" />
  <line x1="-2.062500" y1="2.320485" x2="-2.062500" y2="2.370485" />
  <line x1="-5.887500" y1="-0.599001" x2="-5.387500" y2="-0.887676" />
  <line x1="-1.521651" y1="-1.022863" x2="-1.021651" y2="-1.888888" />
  <line x1="-1.478349" y1="1.167201" x2="-1.521651" y2="1.142201" />
  <line x1="4.012500" y1="2.403220" x2="3.987500" y2="2.359919" />
  <line x1="-1.062500" y1="2.370485" x2="-2.062500" y2="2.370485" />
  <line x1="-5.228349" y1="3.332264" x2="-4.728349" y2="2.466239" />
  <line x1="4.103349" y1="2.466239" x2="4.146651" y2="2.441239" />
  <line x1="-2.112500" y1="3.774427" x2="-1.612500" y2="3.485752" />
  <line x1="4.146651" y1="0.084669" x2="4.103349" y2="0.059669" />
  <line x1="3.462500" y1="1.190785" x2="3.412500" y2="1.190785" />
  <line x1="3.487500" y1="-1.681533" x2="3.987500" y2="-1.970208" />
  <line x1="3.512500" y1="0.526832" x2="3.487500" y2="0.483531" />
  <line x1="-2.112500" y1="1.609364" x2="-1.612500" y2="1.320689" />
  <line x1="1.587500" y1="-2.634161" x2="1.587500" y2="-2.056810" />
  <line x1="1.637500" y1="-2.720763" x2="2.137500" y2="-3.009438" />
  <line x1="-4.637500" y1="2.403220" x2="-4.612500" y2="2.359919" />
  <line x1="-4.146651" y1="1.358707" x2="-4.646651" y2="2.224732" />
  <line x1="1.437500" y1="0.155422" x2="1.437500" y2="0.205422" />
  <line x1="1.537500" y1="-2.634161" x2="1.537500" y2="-2.056810" />
  <line x1="-4.103349" y1="1.383707" x2="-4.603349" y2="2.249732" />
  <line x1="2.771651" y1="-1.863888" x2="2.728349" y2="-1.888888" />
  <line x1="5.187500" y1="0.155422" x2="5.187500" y2="0.205422" />
  <line x1="3.412500" y1="0.613435" x2="3.412500" y2="1.190785" />
  <line x1="-4.103349" y1="1.383707" x2="-4.146651" y2="1.358707" />
  <line x1="1.612500" y1="-0.599001" x2="2.112500" y2="-0.887676" />
  <line x1="-4.603349" y1="2.249732" x2="-4.646651" y2="2.224732" />
  <line x1="-1.437500" y1="1.237954" x2="-1.437500" y2="1.287954" />
  <line x1="-2.146651" y1="2.466239" x2="-2.103349" y2="2.441239" />
  <line x1="-1.646651" y1="3.332264" x2="-1.603349" y2="3.307264" />
  <line x1="-0.362500" y1="0.483531" x2="-0.862500" y2="0.194856" />
  <line x1="-1.521651" y1="1.142201" x2="-1.021651" y2="0.276175" />
  <line x1="-0.228349" y1="-0.806357" x2="0.271651" y2="0.059669" />
  <line x1="4.103349" y1="0.301175" x2="4.146651" y2="0.276175" />
  <line x1="-4.112500" y1="2.648594" x2="-4.612500" y2="2.359919" />
  <line x1="2.271651" y1="3.332264" x2="2.771651" y2="2.466239" />
  <line x1="-0.362500" y1="2.648594" x2="-0.862500" y2="2.359919" />
  <line x1="3.387500" y1="2.648594" x2="2.887500" y2="2.359919" />
  <line x1="2.271651" y1="3.332264" x2="2.228349" y2="3.307264" />
  <line x1="4.562500" y1="1.287954" x2="3.562500" y2="1.287954" />
  <line x1="-5.862500" y1="3.774427" x2="-5.887500" y2="3.731126" />
  <line x1="-2.162500" y1="1.695966" x2="-2.162500" y2="2.273317" />
  <line x1="-0.387500" y1="2.691896" x2="-0.362500" y2="2.648594" />
  <line x1="0.396651" y1="2.249732" x2="0.353349" y2="2.224732" />
  <line x1="4.187500" y1="-2.009642" x2="5.187500" y2="-2.009642" />
  <line x1="-5.362500" y1="3.485752" x2="-5.387500" y2="3.442451" />
  <line x1="-3.312500" y1="2.370485" x2="-2.312500" y2="2.370485" />
  <line x1="0.853349" y1="3.332264" x2="0.353349" y2="2.466239" />
  <line x1="-0.387500" y1="2.691896" x2="-0.887500" y2="2.403220" />
  <line x1="3.978349" y1="-2.080395" x2="4.021651" y2="-2.105395" />
  <line x1="2.687500" y1="2.320485" x2="1.687500" y2="2.320485" />
  <line x1="-5.362500" y1="-0.844375" x2="-5.387500" y2="-0.887676" />
  <line x1="-0.862500" y1="2.359919" x2="-0.887500" y2="2.403220" />
  <line x1="2.728349" y1="0.084669" x2="2.771651" y2="0.059669" />
  <line x1="2.312500" y1="1.287954" x2="3.312500" y2="1.287954" />
  <line x1="-1.521651" y1="3.307264" x2="-1.021651" y2="2.441239" />
  <line x1="1.646651" y1="-1.888888" x2="2.146651" y2="-1.022863" />
  <line x1="3.362500" y1="-1.638231" x2="2.862500" y2="-1.926907" />
  <line x1="1.587500" y1="1.695966" x2="1.587500" y2="2.273317" />
  <line x1="-2.212500" y1="1.695966" x2="-2.162500" y2="1.695966" />
  <line x1="0.853349" y1="1.167201" x2="0.353349" y2="0.301175" />
  <line x1="0.853349" y1="1.167201" x2="0.896651" y2="1.142201" />
  <line x1="-5.912500" y1="1.695966" x2="-5.912500" y2="2.273317" />
  <line x1="-0.978349" y1="-1.863888" x2="-1.021651" y2="-1.888888" />
  <line x1="1.512500" y1="-0.599001" x2="1.487500" y2="-0.555700" />
  <line x1="-0.978349" y1="2.466239" x2="-1.021651" y2="2.441239" />
  <line x1="-1.478349" y1="-0.997863" x2="-1.521651" y2="-1.022863" />
  <line x1="-1.062500" y1="0.205422" x2="-2.062500" y2="0.205422" />
  <line x1="4.646651" y1="1.142201" x2="4.146651" y2="0.276175" />
  <line x1="-3.396651" y1="-1.863888" x2="-3.353349" y2="-1.888888" />
  <line x1="-3.487500" y1="2.403220" x2="-3.512500" y2="2.359919" />
  <line x1="-4.812500" y1="2.320485" x2="-4.812500" y2="2.370485" />
  <line x1="5.337500" y1="-0.469097" x2="5.337500" y2="0.108253" />
  <line x1="5.337500" y1="0.108253" x2="5.287500" y2="0.108253" />
  <line x1="-3.521651" y1="2.249732" x2="-3.478349" y2="2.224732" />
  <line x1="1.603349" y1="-1.863888" x2="2.103349" y2="-0.997863" />
  <line x1="4.012500" y1="0.238157" x2="3.987500" y2="0.194856" />
  <line x1="-1.021651" y1="0.084669" x2="-0.978349" y2="0.059669" />
  <line x1="3.362500" y1="0.526832" x2="2.862500" y2="0.238157" />
  <line x1="2.771651" y1="2.466239" x2="2.728349" y2="2.441239" />
  <line x1="4.146651" y1="2.249732" x2="4.646651" y2="1.383707" />
  <line x1="1.637500" y1="-0.555700" x2="1.612500" y2="-0.599001" />
  <line x1="5.237500" y1="3.774427" x2="4.737500" y2="3.485752" />
  <line x1="-2.937500" y1="1.287954" x2="-3.937500" y2="1.287954" />
  <line x1="-5.962500" y1="1.695966" x2="-5.962500" y2="2.273317" />
  <line x1="-5.187500" y1="1.237954" x2="-5.187500" y2="1.287954" />
  <line x1="1.437500" y1="2.320485" x2="1.437500" y2="2.370485" />
  <line x1="-5.271651" y1="-2.946420" x2="-5.228349" y2="-2.971420" />
  <line x1="-4.728349" y1="-1.863888" x2="-4.771651" y2="-1.888888" />
  <line x1="3.562500" y1="-0.927110" x2="3.562500" y2="-0.877110" />
  <line x1="-5.271651" y1="3.307264" x2="-4.771651" y2="2.441239" />
  <line x1="-0.337500" y1="0.613435" x2="-0.337500" y2="1.190785" />
  <line x1="1.612500" y1="-2.764064" x2="1.637500" y2="-2.720763" />
  <line x1="4.603349" y1="1.167201" x2="4.103349" y2="0.301175" />
  <line x1="0.896651" y1="1.383707" x2="0.853349" y2="1.358707" />
  <line x1="0.437500" y1="0.155422" x2="0.437500" y2="0.205422" />
  <line x1="-1.478349" y1="3.332264" x2="-1.521651" y2="3.307264" />
  <line x1="0.437500" y1="2.370485" x2="1.437500" y2="2.370485" />
  <line x1="-2.112500" y1="-0.555700" x2="-1.612500" y2="-0.844375" />
  <line x1="0.853349" y1="-0.997863" x2="0.896651" y2="-1.022863" />
  <line x1="3.521651" y1="-0.806357" x2="4.021651" y2="0.059669" />
  <line x1="-3.353349" y1="0.084669" x2="-3.396651" y2="0.059669" />
  <line x1="3.412500" y1="0.613435" x2="3.412500" y2="1.190785" />
  <line x1="3.312500" y1="1.237954" x2="3.312500" y2="1.287954" />
  <line x1="4.762500" y1="1.277387" x2="4.737500" y2="1.320689" />
  <line x1="-3.978349" y1="1.358707" x2="-3.478349" y2="2.224732" />
  <line x1="0.437500" y1="0.205422" x2="1.437500" y2="0.205422" />
  <line x1="0.353349" y1="2.466239" x2="0.396651" y2="2.441239" />
  <line x1="-4.728349" y1="2.466239" x2="-4.771651" y2="2.441239" />
  <line x1="-0.187500" y1="-0.927110" x2="-0.187500" y2="-0.877110" />
  <line x1="-1.062500" y1="2.320485" x2="-1.062500" y2="2.370485" />
  <line x1="4.737500" y1="3.485752" x2="4.762500" y2="3.442451" />
  <line x1="3.462500" y1="0.613435" x2="3.462500" y2="1.190785" />
  <line x1="-2.112500" y1="3.774427" x2="-2.137500" y2="3.731126" />
  <line x1="3.396651" y1="1.383707" x2="2.896651" y2="2.249732" />
  <line x1="0.396651" y1="0.084669" x2="0.353349" y2="0.059669" />
  <line x1="5.228349" y1="2.441239" x2="4.728349" y2="3.307264" />
  <line x1="5.337500" y1="-0.469097" x2="5.287500" y2="-0.469097" />
  <line x1="3.412500" y1="1.190785" x2="3.462500" y2="1.190785" />
  <line x1="2.887500" y1="2.359919" x2="2.862500" y2="2.403220" />
  <line x1="2.228349" y1="1.142201" x2="2.728349" y2="0.276175" />
  <line x1="5.262500" y1="3.731126" x2="4.762500" y2="3.442451" />
  <line x1="5.271651" y1="2.466239" x2="4.771651" y2="3.332264" />
  <line x1="5.262500" y1="1.566063" x2="5.237500" y2="1.609364" />
  <line x1="-3.312500" y1="-1.959642" x2="-2.312500" y2="-1.959642" />
  <line x1="1.537500" y1="-2.634161" x2="1.537500" y2="-2.056810" />
  <line x1="1.487500" y1="3.774427" x2="1.512500" y2="3.731126" />
  <line x1="-5.228349" y1="3.332264" x2="-5.271651" y2="3.307264" />
  <line x1="1.537500" y1="1.695966" x2="1.537500" y2="2.273317" />
  <line x1="2.312500" y1="-3.092173" x2="2.312500" y2="-3.042173" />
  <line x1="3.478349" y1="-2.946420" x2="3.521651" y2="-2.971420" />
  <line x1="-2.937500" y1="1.237954" x2="-3.937500" y2="1.237954" />
  <line x1="-4.137500" y1="-1.638231" x2="-4.637500" y2="-1.926907" />
  <line x1="3.987500" y1="2.359919" x2="4.012500" y2="2.403220" />
  <line x1="-4.012500" y1="-1.681533" x2="-3.987500" y2="-1.638231" />
  <line x1="-0.437500" y1="1.237954" x2="-0.437500" y2="1.287954" />
  <line x1="0.987500" y1="3.485752" x2="1.012500" y2="3.442451" />
  <line x1="3.478349" y1="1.383707" x2="3.521651" y2="1.358707" />
  <line x1="1.537500" y1="2.273317" x2="1.587500" y2="2.273317" />
  <line x1="-3.521651" y1="-2.080395" x2="-3.478349" y2="-2.105395" />
  <line x1="5.337500" y1="1.695966" x2="5.337500" y2="2.273317" />
  <line x1="2.112500" y1="1.277387" x2="2.137500" y2="1.320689" />
  <line x1="3.387500" y1="2.648594" x2="3.362500" y2="2.691896" />
  <line x1="5.237500" y1="-2.720763" x2="4.737500" y2="-3.009438" />
  <line x1="4.562500" y1="1.237954" x2="4.562500" y2="1.287954" />
  <line x1="-1.437500" y1="1.237954" x2="-0.437500" y2="1.237954" />
  <line x1="-2.228349" y1="2.466239" x2="-2.728349" y2="3.332264" />
  <line x1="-2.312500" y1="-2.009642" x2="-2.312500" y2="-1.959642" />
  <line x1="1.587500" y1="0.108253" x2="1.537500" y2="0.108253" />
  <line x1="3.562500" y1="1.237954" x2="3.562500" y2="1.287954" />
  <line x1="5.287500" y1="-0.469097" x2="5.287500" y2="0.108253" />
  <line x1="-0.337500" y1="-1.551629" x2="-0.337500" y2="-0.974279" />
  <line x1="-0.337500" y1="1.190785" x2="-0.287500" y2="1.190785" />
  <line x1="1.512500" y1="1.566063" x2="1.487500" y2="1.609364" />
  <line x1="-4.812500" y1="-1.959642" x2="-5.812500" y2="-1.959642" />
  <line x1="4.771651" y1="3.332264" x2="4.728349" y2="3.307264" />
  <line x1="1.521651" y1="2.466239" x2="1.021651" y2="3.332264" />
  <line x1="-0.387500" y1="0.526832" x2="-0.362500" y2="0.483531" />
  <line x1="0.437500" y1="-2.009642" x2="1.437500" y2="-2.009642" />
  <line x1="2.771651" y1="2.224732" x2="2.271651" y2="1.358707" />
  <line x1="3.462500" y1="0.613435" x2="3.462500" y2="1.190785" />
  <line x1="0.812500" y1="1.287954" x2="-0.187500" y2="1.287954" />
  <line x1="5.262500" y1="1.566063" x2="4.762500" y2="1.277387" />
  <line x1="-2.212500" y1="2.273317" x2="-2.162500" y2="2.273317" />
  <line x1="-0.287500" y1="-0.974279" x2="-0.337500" y2="-0.974279" />
  <line x1="-0.362500" y1="2.648594" x2="-0.387500" y2="2.691896" />
  <line x1="-2.262500" y1="1.609364" x2="-2.762500" y2="1.320689" />
  <line x1="0.237500" y1="2.359919" x2="0.262500" y2="2.403220" />
  <line x1="-3.978349" y1="-2.971420" x2="-3.478349" y2="-2.105395" />
  <line x1="-0.287500" y1="0.613435" x2="-0.287500" y2="1.190785" />
  <line x1="-4.187500" y1="1.237954" x2="-4.187500" y2="1.287954" />
  <line x1="-2.162500" y1="-0.469097" x2="-2.162500" y2="0.108253" />
  <line x1="2.728349" y1="2.249732" x2="2.228349" y2="1.383707" />
  <line x1="-3.312500" y1="2.320485" x2="-3.312500" y2="2.370485" />
  <line x1="-2.737500" y1="1.277387" x2="-2.762500" y2="1.320689" />
  <line x1="-5.896651" y1="-1.863888" x2="-5.396651" y2="-0.997863" />
  <line x1="3.487500" y1="2.648594" x2="3.987500" y2="2.359919" />
  <line x1="-1.437500" y1="-0.877110" x2="-0.437500" y2="-0.877110" />
  <line x1="3.512500" y1="2.691896" x2="4.012500" y2="2.403220" />
  <line x1="-2.237500" y1="-0.599001" x2="-2.262500" y2="-0.555700" />
  <line x1="3.462500" y1="-1.551629" x2="3.412500" y2="-1.551629" />
  <line x1="4.646651" y1="-0.781357" x2="4.603349" y2="-0.806357" />
  <line x1="0.812500" y1="1.237954" x2="0.812500" y2="1.287954" />
  <line x1="4.603349" y1="-0.997863" x2="4.103349" y2="-1.863888" />
  <line x1="2.728349" y1="-2.080395" x2="2.228349" y2="-2.946420" />
  <line x1="-2.137500" y1="3.731126" x2="-1.637500" y2="3.442451" />
  <line x1="1.521651" y1="2.466239" x2="1.478349" y2="2.441239" />
  <line x1="0.396651" y1="-2.080395" x2="0.896651" y2="-2.946420" />
  <line x1="0.437500" y1="2.320485" x2="1.437500" y2="2.320485" />
  <line x1="-5.962500" y1="2.273317" x2="-5.912500" y2="2.273317" />
  <line x1="1.537500" y1="1.695966" x2="1.537500" y2="2.273317" />
  <line x1="-3.937500" y1="-0.927110" x2="-3.937500" y2="-0.877110" />
  <line x1="-5.912500" y1="-0.469097" x2="-5.912500" y2="0.108253" />
  <line x1="3.487500" y1="0.483531" x2="3.987500" y2="0.194856" />
  <line x1="3.412500" y1="-3.716692" x2="3.412500" y2="-3.139342" />
  <line x1="-1.521651" y1="1.383707" x2="-1.478349" y2="1.358707" />
  <line x1="-0.978349" y1="2.224732" x2="-1.478349" y2="1.358707" />
  <line x1="-4.021651" y1="1.383707" x2="-3.978349" y2="1.358707" />
  <line x1="3.521651" y1="1.358707" x2="4.021651" y2="2.224732" />
  <line x1="1.512500" y1="1.566063" x2="1.012500" y2="1.277387" />
  <line x1="1.603349" y1="-1.863888" x2="1.646651" y2="-1.888888" />
  <line x1="2.112500" y1="-3.052740" x2="2.137500" y2="-3.009438" />
  <line x1="-2.228349" y1="2.466239" x2="-2.271651" y2="2.441239" />
  <line x1="1.512500" y1="3.731126" x2="1.012500" y2="3.442451" />
  <line x1="2.103349" y1="3.332264" x2="2.146651" y2="3.307264" />
  <line x1="-5.228349" y1="1.167201" x2="-5.271651" y2="1.142201" />
  <line x1="-0.287500" y1="-1.551629" x2="-0.337500" y2="-1.551629" />
  <line x1="1.487500" y1="3.774427" x2="0.987500" y2="3.485752" />
  <line x1="0.896651" y1="3.307264" x2="0.396651" y2="2.441239" />
  <line x1="-2.237500" y1="1.566063" x2="-2.737500" y2="1.277387" />
  <line x1="-1.021651" y1="-2.080395" x2="-1.521651" y2="-2.946420" />
  <line x1="-2.896651" y1="3.332264" x2="-2.853349" y2="3.307264" />
  <line x1="-5.887500" y1="3.731126" x2="-5.387500" y2="3.442451" />
  <line x1="-1.021651" y1="2.249732" x2="-1.521651" y2="1.383707" />
  <line x1="-2.237500" y1="3.731126" x2="-2.737500" y2="3.442451" />
  <line x1="1.437500" y1="-2.009642" x2="1.437500" y2="-1.959642" />
  <line x1="-5.387500" y1="1.277387" x2="-5.362500" y2="1.320689" />
  <line x1="3.396651" y1="-0.781357" x2="3.353349" y2="-0.806357" />
  <line x1="-0.237500" y1="2.691896" x2="0.262500" y2="2.403220" />
  <line x1="0.437500" y1="2.320485" x2="0.437500" y2="2.370485" />
  <line x1="-0.387500" y1="2.691896" x2="-0.887500" y2="2.403220" />
  <line x1="4.737500" y1="-0.844375" x2="4.762500" y2="-0.887676" />
  <line x1="-2.137500" y1="-0.599001" x2="-1.637500" y2="-0.887676" />
  <line x1="2.896651" y1="0.084669" x2="2.853349" y2="0.059669" />
  <line x1="-2.137500" y1="1.566063" x2="-1.637500" y2="1.277387" />
  <line x1="3.487500" y1="-1.681533" x2="3.512500" y2="-1.638231" />
  <line x1="5.271651" y1="2.466239" x2="5.228349" y2="2.441239" />
  <line x1="2.228349" y1="-2.946420" x2="2.271651" y2="-2.971420" />
  <line x1="-4.012500" y1="-1.681533" x2="-3.512500" y2="-1.970208" />
  <line x1="-3.978349" y1="-0.806357" x2="-3.478349" y2="0.059669" />
  <line x1="-3.987500" y1="2.691896" x2="-3.487500" y2="2.403220" />
  <line x1="4.146651" y1="-2.080395" x2="4.646651" y2="-2.946420" />
  <line x1="2.137500" y1="3.485752" x2="2.112500" y2="3.442451" />
  <line x1="-5.187500" y1="-3.092173" x2="-5.187500" y2="-3.042173" />
  <line x1="3.387500" y1="0.483531" x2="2.887500" y2="0.194856" />
  <line x1="3.362500" y1="-1.638231" x2="3.387500" y2="-1.681533" />
  <line x1="3.396651" y1="1.383707" x2="3.353349" y2="1.358707" />
  <line x1="3.512500" y1="-1.638231" x2="4.012500" y2="-1.926907" />
  <line x1="3.412500" y1="-1.551629" x2="3.412500" y2="-0.974279" />
  <line x1="-2.112500" y1="1.609364" x2="-1.612500" y2="1.320689" />
  <line x1="-4.137500" y1="2.691896" x2="-4.112500" y2="2.648594" />
  <line x1="1.512500" y1="-0.599001" x2="1.012500" y2="-0.887676" />
  <line x1="1.612500" y1="-0.599001" x2="1.637500" y2="-0.555700" />
  <line x1="1.487500" y1="-0.555700" x2="0.987500" y2="-0.844375" />
  <line x1="3.412500" y1="-3.716692" x2="3.412500" y2="-3.139342" />
  <line x1="-3.512500" y1="2.359919" x2="-3.487500" y2="2.403220" />
  <line x1="1.521651" y1="0.301175" x2="1.021651" y2="1.167201" />
  <line x1="3.462500" y1="-3.139342" x2="3.412500" y2="-3.139342" />
  <line x1="1.687500" y1="-2.009642" x2="1.687500" y2="-1.959642" />
  <line x1="2.312500" y1="-3.042173" x2="3.312500" y2="-3.042173" />
  <line x1="-2.262500" y1="-2.720763" x2="-2.762500" y2="-3.009438" />
  <line x1="2.312500" y1="-3.092173" x2="3.312500" y2="-3.092173" />
  <line x1="3.478349" y1="1.383707" x2="3.978349" y2="2.249732" />
  <line x1="-3.353349" y1="2.249732" x2="-2.853349" y2="1.383707" />
  <line x1="2.271651" y1="1.167201" x2="2.771651" y2="0.301175" />
  <line x1="5.237500" y1="-0.555700" x2="4.737500" y2="-0.844375" />
  <line x1="3.478349" y1="-2.946420" x2="3.978349" y2="-2.080395" />
  <line x1="-4.771651" y1="2.249732" x2="-4.728349" y2="2.224732" />
  <line x1="4.771651" y1="-0.997863" x2="4.728349" y2="-1.022863" />
  <line x1="4.103349" y1="-1.863888" x2="4.146651" y2="-1.888888" />
  <line x1="1.487500" y1="1.609364" x2="1.512500" y2="1.566063" />
  <line x1="-0.353349" y1="1.383707" x2="-0.396651" y2="1.358707" />
  <line x1="-0.337500" y1="0.613435" x2="-0.337500" y2="1.190785" />
  <line x1="-1.062500" y1="-2.009642" x2="-2.062500" y2="-2.009642" />
  <line x1="0.896651" y1="-0.781357" x2="0.853349" y2="-0.806357" />
  <line x1="1.587500" y1="2.273317" x2="1.537500" y2="2.273317" />
  <line x1="4.646651" y1="-1.022863" x2="4.146651" y2="-1.888888" />
  <line x1="-5.962500" y1="0.108253" x2="-5.912500" y2="0.108253" />
  <line x1="-4.037500" y1="0.613435" x2="-4.037500" y2="1.190785" />
  <line x1="3.362500" y1="-1.638231" x2="2.862500" y2="-1.926907" />
  <line x1="1.687500" y1="0.155422" x2="1.687500" y2="0.205422" />
  <line x1="-2.853349" y1="-1.022863" x2="-3.353349" y2="-1.888888" />
  <line x1="0.396651" y1="0.084669" x2="0.896651" y2="-0.781357" />
  <line x1="-3.396651" y1="-2.105395" x2="-2.896651" y2="-2.971420" />
  <line x1="2.687500" y1="2.370485" x2="1.687500" y2="2.370485" />
  <line x1="-0.387500" y1="-1.638231" x2="-0.362500" y2="-1.681533" />
  <line x1="3.387500" y1="0.483531" x2="2.887500" y2="0.194856" />
  <line x1="-1.021651" y1="-2.080395" x2="-0.978349" y2="-2.105395" />
  <line x1="-0.271651" y1="-0.781357" x2="-0.228349" y2="-0.806357" />
  <line x1="0.262500" y1="2.403220" x2="0.237500" y2="2.359919" />
  <line x1="-0.271651" y1="1.383707" x2="0.228349" y2="2.249732" />
  <line x1="3.387500" y1="-1.681533" x2="2.887500" y2="-1.970208" />
  <line x1="-0.262500" y1="2.648594" x2="-0.237500" y2="2.691896" />
  <line x1="2.862500" y1="-1.926907" x2="2.887500" y2="-1.970208" />
  <line x1="3.462500" y1="-1.551629" x2="3.462500" y2="-0.974279" />
  <line x1="2.312500" y1="-0.927110" x2="3.312500" y2="-0.927110" />
  <line x1="3.353349" y1="-2.971420" x2="2.853349" y2="-2.105395" />
  <line x1="-4.037500" y1="0.613435" x2="-4.087500" y2="0.613435" />
  <line x1="-4.012500" y1="2.648594" x2="-3.512500" y2="2.359919" />
  <line x1="-4.087500" y1="0.613435" x2="-4.087500" y2="1.190785" />
  <line x1="3.396651" y1="-2.946420" x2="2.896651" y2="-2.080395" />
  <line x1="-4.812500" y1="-2.009642" x2="-5.812500" y2="-2.009642" />
  <line x1="3.487500" y1="-1.681533" x2="3.987500" y2="-1.970208" />
  <line x1="3.487500" y1="2.648594" x2="3.987500" y2="2.359919" />
  <line x1="-4.612500" y1="-1.970208" x2="-4.637500" y2="-1.926907" />
  <line x1="3.396651" y1="-2.946420" x2="3.353349" y2="-2.971420" />
  <line x1="1.637500" y1="-0.555700" x2="2.137500" y2="-0.844375" />
  <line x1="1.646651" y1="2.441239" x2="2.146651" y2="3.307264" />
  <line x1="4.562500" y1="1.237954" x2="3.562500" y2="1.237954" />
  <line x1="-0.271651" y1="-2.946420" x2="0.228349" y2="-2.080395" />
  <line x1="2.862500" y1="0.238157" x2="2.887500" y2="0.194856" />
  <line x1="-3.396651" y1="0.059669" x2="-2.896651" y2="-0.806357" />
  <line x1="-4.087500" y1="0.613435" x2="-4.087500" y2="1.190785" />
  <line x1="5.187500" y1="-2.009642" x2="5.187500" y2="-1.959642" />
  <line x1="5.228349" y1="0.276175" x2="4.728349" y2="1.142201" />
  <line x1="-3.353349" y1="2.249732" x2="-3.396651" y2="2.224732" />
  <line x1="1.537500" y1="-0.469097" x2="1.587500" y2="-0.469097" />
  <line x1="3.478349" y1="-0.781357" x2="3.978349" y2="0.084669" />
  <line x1="0.896651" y1="-1.022863" x2="0.396651" y2="-1.888888" />
  <line x1="-0.387500" y1="-1.638231" x2="-0.887500" y2="-1.926907" />
  <line x1="0.853349" y1="-0.997863" x2="0.353349" y2="-1.863888" />
  <line x1="-3.987500" y1="-1.638231" x2="-3.487500" y2="-1.926907" />
  <line x1="-5.896651" y1="-1.863888" x2="-5.853349" y2="-1.888888" />
  <line x1="-0.237500" y1="2.691896" x2="-0.262500" y2="2.648594" />
  <line x1="-2.312500" y1="0.155422" x2="-2.312500" y2="0.205422" />
  <line x1="2.896651" y1="2.249732" x2="2.853349" y2="2.224732" />
  <line x1="1.637500" y1="-0.555700" x2="2.137500" y2="-0.844375" />
  <line x1="-0.396651" y1="1.358707" x2="-0.896651" y2="2.224732" />
  <line x1="3.462500" y1="-0.974279" x2="3.412500" y2="-0.974279" />
  <line x1="-0.262500" y1="2.648594" x2="0.237500" y2="2.359919" />
  <line x1="3.512500" y1="-1.638231" x2="4.012500" y2="-1.926907" />
  <line x1="-0.887500" y1="-1.926907" x2="-0.862500" y2="-1.970208" />
  <line x1="-1.612500" y1="3.485752" x2="-1.637500" y2="3.442451" />
  <line x1="-4.087500" y1="-3.716692" x2="-4.087500" y2="-3.139342" />
  <line x1="1.603349" y1="2.466239" x2="2.103349" y2="3.332264" />
  <line x1="1.537500" y1="-0.469097" x2="1.537500" y2="0.108253" />
  <line x1="-4.037500" y1="-3.139342" x2="-4.087500" y2="-3.139342" />
  <line x1="-0.237500" y1="-1.638231" x2="0.262500" y2="-1.926907" />
  <line x1="3.462500" y1="-3.716692" x2="3.462500" y2="-3.139342" />
  <line x1="3.353349" y1="1.358707" x2="2.853349" y2="2.224732" />
  <line x1="-0.353349" y1="1.383707" x2="-0.853349" y2="2.249732" />
  <line x1="3.512500" y1="2.691896" x2="3.487500" y2="2.648594" />
  <line x1="2.137500" y1="-0.844375" x2="2.112500" y2="-0.887676" />
  <line x1="-0.353349" y1="-2.946420" x2="-0.396651" y2="-2.971420" />
  <line x1="-0.853349" y1="-2.080395" x2="-0.896651" y2="-2.105395" />
  <line x1="-0.387500" y1="0.526832" x2="-0.887500" y2="0.238157" />
  <line x1="0.228349" y1="2.249732" x2="0.271651" y2="2.224732" />
  <line x1="1.587500" y1="-0.469097" x2="1.587500" y2="0.108253" />
  <line x1="5.337500" y1="1.695966" x2="5.287500" y2="1.695966" />
  <line x1="1.487500" y1="-2.720763" x2="0.987500" y2="-3.009438" />
  <line x1="1.012500" y1="1.277387" x2="0.987500" y2="1.320689" />
  <line x1="-0.262500" y1="0.483531" x2="0.237500" y2="0.194856" />
  <line x1="-2.062500" y1="-2.009642" x2="-2.062500" y2="-1.959642" />
  <line x1="5.271651" y1="0.301175" x2="4.771651" y2="1.167201" />
  <line x1="-4.771651" y1="0.084669" x2="-4.728349" y2="0.059669" />
  <line x1="-0.262500" y1="2.648594" x2="0.237500" y2="2.359919" />
  <line x1="-4.012500" y1="2.648594" x2="-3.512500" y2="2.359919" />
  <line x1="-0.262500" y1="-1.681533" x2="-0.237500" y2="-1.638231" />
  <line x1="0.437500" y1="0.155422" x2="1.437500" y2="0.155422" />
  <line x1="-2.112500" y1="-0.555700" x2="-1.612500" y2="-0.844375" />
  <line x1="3.462500" y1="-3.716692" x2="3.462500" y2="-3.139342" />
  <line x1="2.687500" y1="-2.009642" x2="2.687500" y2="-1.959642" />
  <line x1="-2.112500" y1="-0.555700" x2="-2.137500" y2="-0.599001" />
  <line x1="-0.187500" y1="1.237954" x2="-0.187500" y2="1.287954" />
  <line x1="-2.137500" y1="-0.599001" x2="-1.637500" y2="-0.887676" />
  <line x1="-2.237500" y1="-0.599001" x2="-2.737500" y2="-0.887676" />
  <line x1="-0.287500" y1="-3.716692" x2="-0.287500" y2="-3.139342" />
  <line x1="-4.612500" y1="2.359919" x2="-4.637500" y2="2.403220" />
  <line x1="-1.612500" y1="-0.844375" x2="-1.637500" y2="-0.887676" />
  <line x1="-2.103349" y1="-1.888888" x2="-1.603349" y2="-1.022863" />
  <line x1="4.562500" y1="-0.877110" x2="3.562500" y2="-0.877110" />
  <line x1="-5.887500" y1="1.566063" x2="-5.387500" y2="1.277387" />
  <line x1="-2.146651" y1="-1.863888" x2="-1.646651" y2="-0.997863" />
  <line x1="-4.021651" y1="1.383707" x2="-3.521651" y2="2.249732" />
  <line x1="-1.437500" y1="-3.092173" x2="-1.437500" y2="-3.042173" />
  <line x1="4.603349" y1="3.332264" x2="4.646651" y2="3.307264" />
  <line x1="-5.396651" y1="-0.997863" x2="-5.353349" y2="-1.022863" />
  <line x1="3.353349" y1="-0.806357" x2="2.853349" y2="0.059669" />
  <line x1="0.353349" y1="-2.105395" x2="0.853349" y2="-2.971420" />
  <line x1="-2.146651" y1="-1.863888" x2="-2.103349" y2="-1.888888" />
  <line x1="4.146651" y1="-2.080395" x2="4.103349" y2="-2.105395" />
  <line x1="2.312500" y1="-0.877110" x2="3.312500" y2="-0.877110" />
  <line x1="-1.646651" y1="-0.997863" x2="-1.603349" y2="-1.022863" />
  <line x1="0.853349" y1="3.332264" x2="0.896651" y2="3.307264" />
  <line x1="2.228349" y1="-1.022863" x2="2.728349" y2="-1.888888" />
  <line x1="5.337500" y1="-2.634161" x2="5.337500" y2="-2.056810" />
  <line x1="4.603349" y1="1.167201" x2="4.646651" y2="1.142201" />
  <line x1="-2.103349" y1="2.441239" x2="-1.603349" y2="3.307264" />
  <line x1="-3.396651" y1="2.466239" x2="-3.353349" y2="2.441239" />
  <line x1="1.537500" y1="-2.634161" x2="1.587500" y2="-2.634161" />
  <line x1="-0.887500" y1="0.238157" x2="-0.862500" y2="0.194856" />
  <line x1="-4.112500" y1="2.648594" x2="-4.137500" y2="2.691896" />
  <line x1="2.271651" y1="-0.997863" x2="2.771651" y2="-1.863888" />
  <line x1="1.587500" y1="-2.634161" x2="1.587500" y2="-2.056810" />
  <line x1="1.612500" y1="1.566063" x2="1.637500" y2="1.609364" />
  <line x1="-2.162500" y1="1.695966" x2="-2.162500" y2="2.273317" />
  <line x1="1.537500" y1="-2.056810" x2="1.587500" y2="-2.056810" />
  <line x1="4.187500" y1="-2.009642" x2="4.187500" y2="-1.959642" />
  <line x1="2.271651" y1="1.167201" x2="2.228349" y2="1.142201" />
  <line x1="-0.396651" y1="-0.806357" x2="-0.896651" y2="0.059669" />
  <line x1="2.687500" y1="-1.959642" x2="1.687500" y2="-1.959642" />
  <line x1="-2.896651" y1="1.167201" x2="-2.853349" y2="1.142201" />
  <line x1="1.612500" y1="1.566063" x2="2.112500" y2="1.277387" />
  <line x1="-5.853349" y1="2.441239" x2="-5.353349" y2="3.307264" />
  <line x1="3.387500" y1="-1.681533" x2="2.887500" y2="-1.970208" />
  <line x1="3.462500" y1="-1.551629" x2="3.462500" y2="-0.974279" />
  <line x1="-2.896651" y1="-0.997863" x2="-3.396651" y2="-1.863888" />
  <line x1="-0.862500" y1="-1.970208" x2="-0.887500" y2="-1.926907" />
  <line x1="1.512500" y1="1.566063" x2="1.012500" y2="1.277387" />
  <line x1="-0.287500" y1="0.613435" x2="-0.287500" y2="1.190785" />
  <line x1="-0.887500" y1="2.403220" x2="-0.862500" y2="2.359919" />
  <line x1="1.512500" y1="-2.764064" x2="1.487500" y2="-2.720763" />
  <line x1="1.637500" y1="1.609364" x2="1.612500" y2="1.566063" />
  <line x1="4.646651" y1="-2.946420" x2="4.603349" y2="-2.971420" />
  <line x1="0.437500" y1="-2.009642" x2="0.437500" y2="-1.959642" />
  <line x1="4.187500" y1="-1.959642" x2="5.187500" y2="-1.959642" />
  <line x1="-0.337500" y1="-1.551629" x2="-0.337500" y2="-0.974279" />
  <line x1="-2.853349" y1="3.307264" x2="-3.353349" y2="2.441239" />
  <line x1="-2.162500" y1="-2.634161" x2="-2.162500" y2="-2.056810" />
  <line x1="-3.353349" y1="-2.080395" x2="-3.396651" y2="-2.105395" />
  <line x1="5.262500" y1="-2.764064" x2="5.237500" y2="-2.720763" />
  <line x1="3.978349" y1="2.249732" x2="4.021651" y2="2.224732" />
  <line x1="-0.271651" y1="-0.781357" x2="0.228349" y2="0.084669" />
  <line x1="-2.212500" y1="-2.056810" x2="-2.162500" y2="-2.056810" />
  <line x1="4.762500" y1="-0.887676" x2="4.737500" y2="-0.844375" />
  <line x1="-0.228349" y1="-2.971420" x2="0.271651" y2="-2.105395" />
  <line x1="2.728349" y1="-2.080395" x2="2.771651" y2="-2.105395" />
  <line x1="-4.112500" y1="2.648594" x2="-4.612500" y2="2.359919" />
  <line x1="3.396651" y1="-0.781357" x2="2.896651" y2="0.084669" />
  <line x1="1.646651" y1="0.276175" x2="2.146651" y2="1.142201" />
  <line x1="-4.137500" y1="2.691896" x2="-4.637500" y2="2.403220" />
  <line x1="-5.887500" y1="-0.599001" x2="-5.387500" y2="-0.887676" />
  <line x1="-0.978349" y1="0.059669" x2="-1.478349" y2="-0.806357" />
  <line x1="-1.062500" y1="-1.959642" x2="-2.062500" y2="-1.959642" />
  <line x1="5.237500" y1="-0.555700" x2="4.737500" y2="-0.844375" />
  <line x1="-1.062500" y1="0.155422" x2="-2.062500" y2="0.155422" />
  <line x1="0.396651" y1="-2.080395" x2="0.353349" y2="-2.105395" />
  <line x1="1.612500" y1="-0.599001" x2="2.112500" y2="-0.887676" />
  <line x1="3.478349" y1="-0.781357" x2="3.521651" y2="-0.806357" />
  <line x1="-4.137500" y1="-1.638231" x2="-4.112500" y2="-1.681533" />
  <line x1="-4.021651" y1="-0.781357" x2="-3.521651" y2="0.084669" />
  <line x1="-2.896651" y1="3.332264" x2="-3.396651" y2="2.466239" />
  <line x1="5.262500" y1="-0.599001" x2="5.237500" y2="-0.555700" />
  <line x1="2.312500" y1="-0.927110" x2="2.312500" y2="-0.877110" />
  <line x1="5.287500" y1="-2.634161" x2="5.287500" y2="-2.056810" />
  <line x1="-4.021651" y1="-2.946420" x2="-3.521651" y2="-2.080395" />
  <line x1="-2.728349" y1="3.332264" x2="-2.771651" y2="3.307264" />
  <line x1="-2.146651" y1="2.466239" x2="-1.646651" y2="3.332264" />
  <line x1="1.587500" y1="1.695966" x2="1.537500" y2="1.695966" />
  <line x1="-4.812500" y1="2.370485" x2="-5.812500" y2="2.370485" />
  <line x1="5.262500" y1="-0.599001" x2="4.762500" y2="-0.887676" />
  <line x1="4.187500" y1="2.320485" x2="5.187500" y2="2.320485" />
  <line x1="3.362500" y1="2.691896" x2="2.862500" y2="2.403220" />
  <line x1="-4.728349" y1="0.059669" x2="-5.228349" y2="-0.806357" />
  <line x1="-2.137500" y1="-0.599001" x2="-2.112500" y2="-0.555700" />
  <line x1="-2.212500" y1="-2.634161" x2="-2.212500" y2="-2.056810" />
  <line x1="3.312500" y1="-3.092173" x2="3.312500" y2="-3.042173" />
  <line x1="-2.937500" y1="-0.877110" x2="-3.937500" y2="-0.877110" />
  <line x1="4.187500" y1="0.155422" x2="4.187500" y2="0.205422" />
  <line x1="1.537500" y1="0.108253" x2="1.587500" y2="0.108253" />
  <line x1="1.587500" y1="1.695966" x2="1.587500" y2="2.273317" />
  <line x1="-1.062500" y1="2.320485" x2="-2.062500" y2="2.320485" />
  <line x1="3.412500" y1="-3.716692" x2="3.462500" y2="-3.716692" />
  <line x1="3.387500" y1="0.483531" x2="3.362500" y2="0.526832" />
  <line x1="1.487500" y1="1.609364" x2="0.987500" y2="1.320689" />
  <line x1="-2.137500" y1="1.566063" x2="-2.112500" y2="1.609364" />
  <line x1="1.603349" y1="0.301175" x2="1.646651" y2="0.276175" />
  <line x1="3.387500" y1="2.648594" x2="2.887500" y2="2.359919" />
  <line x1="5.228349" y1="-1.888888" x2="4.728349" y2="-1.022863" />
  <line x1="1.587500" y1="-2.056810" x2="1.537500" y2="-2.056810" />
  <line x1="3.412500" y1="-3.139342" x2="3.462500" y2="-3.139342" />
  <line x1="-5.896651" y1="2.466239" x2="-5.396651" y2="3.332264" />
  <line x1="-3.937500" y1="1.237954" x2="-3.937500" y2="1.287954" />
  <line x1="-1.062500" y1="-2.009642" x2="-1.062500" y2="-1.959642" />
  <line x1="5.271651" y1="-1.863888" x2="4.771651" y2="-0.997863" />
  <line x1="-4.771651" y1="-2.080395" x2="-4.728349" y2="-2.105395" />
  <line x1="5.262500" y1="-0.599001" x2="4.762500" y2="-0.887676" />
  <line x1="2.103349" y1="1.167201" x2="2.146651" y2="1.142201" />
  <line x1="4.562500" y1="-3.042173" x2="3.562500" y2="-3.042173" />
  <line x1="-3.353349" y1="0.084669" x2="-2.853349" y2="-0.781357" />
  <line x1="5.271651" y1="0.301175" x2="5.228349" y2="0.276175" />
  <line x1="2.896651" y1="-2.080395" x2="2.853349" y2="-2.105395" />
  <line x1="4.762500" y1="-3.052740" x2="4.737500" y2="-3.009438" />
  <line x1="0.812500" y1="1.237954" x2="-0.187500" y2="1.237954" />
  <line x1="5.271651" y1="-1.863888" x2="5.228349" y2="-1.888888" />
  <line x1="4.562500" y1="-3.092173" x2="4.562500" y2="-3.042173" />
  <line x1="3.987500" y1="-1.970208" x2="4.012500" y2="-1.926907" />
  <line x1="-0.187500" y1="-3.092173" x2="-0.187500" y2="-3.042173" />
  <line x1="4.562500" y1="-3.092173" x2="3.562500" y2="-3.092173" />
  <line x1="-5.887500" y1="1.566063" x2="-5.862500" y2="1.609364" />
 </g>
<g stroke="#f0f">
  <line x1="5.312625" y1="-2.706329" x2="5.312625" y2="3.788861" />
  <line x1="-4.062375" y1="2.706329" x2="-5.937375" y2="3.788861" />
  <line x1="-2.187375" y1="3.788861" x2="-4.062375" y2="2.706329" />
  <line x1="3.437625" y1="-3.788861" x2="5.312625" y2="-2.706329" />
  <line x1="1.562625" y1="-2.706329" x2="3.437625" y2="-3.788861" />
  <line x1="-0.312375" y1="2.706329" x2="-2.187375" y2="3.788861" />
  <line x1="-0.312375" y1="-3.788861" x2="1.562625" y2="-2.706329" />
  <line x1="-4.062375" y1="-3.788861" x2="-2.187375" y2="-2.706329" />
  <line x1="-2.187375" y1="-2.706329" x2="-0.312375" y2="-3.788861" />
  <line x1="1.562625" y1="3.788861" x2="-0.312375" y2="2.706329" />
  <line x1="3.437625" y1="2.706329" x2="1.562625" y2="3.788861" />
  <line x1="5.312625" y1="3.788861" x2="3.437625" y2="2.706329" />
  <line x1="-5.937375" y1="-2.706329" x2="-4.062375" y2="-3.788861" />
  <line x1="-5.937375" y1="3.788861" x2="-5.937375" y2="-2.706329" />
 </g>
 </g>
</svg>
